<svg xmlns="http://www.w3.org/2000/svg" width="45" height="42" viewBox="0 0 45 42">
    <g fill="#1F3654" fill-rule="evenodd">
        <path d="M41.527 17.86l.209.02.206.04.203.05.199.06.194.08.188.09.182.11.173.11.165.13.156.14.145.15.135.16.123.17.111.18.098.18.086.2.071.19.058.21.043.2.03.21.014.21v.21l-.014.2-.03.21-.043.21-.058.2-.071.19-.086.2-.098.18-.111.18-.123.17-.135.16-.145.15-.156.14-.165.13-.173.12-.182.1-.188.09-.194.08-.199.06-.203.05-.206.04-.209.02-.209.01h-38l-.209-.01-.209-.02-.206-.04-.203-.05-.199-.06-.194-.08-.188-.09-.182-.1-.173-.12-.165-.13-.156-.14-.145-.15-.135-.16-.123-.17-.111-.18-.098-.18-.086-.2-.071-.19-.058-.2-.043-.21-.03-.21-.014-.2v-.21l.014-.21.03-.21.043-.2.058-.21.071-.19.086-.2.098-.18.111-.18.123-.17.135-.16.145-.15.156-.14.165-.13.173-.11.182-.11.188-.09.194-.08.199-.06.203-.05.206-.04.209-.02.209-.01h38z"/>
        <path d="M3.181 17.68l.144.01.144.02.143.03.141.03.139.04.137.05.135.05.133.06.129.06.126.08.122.07.118.09.114.09.11.09.105.1 17.678 17.68.1.1.095.11.089.12.084.12.078.12.072.12.066.13.059.14.053.13.047.14.04.14.033.14.026.14.019.14.012.15.005.14-.001.15-.009.14-.016.15-.023.14-.029.14-.037.14-.043.14-.049.14-.057.13-.062.13-.069.13-.075.12-.081.13-.087.11-.092.11-.097.11-.103.1-.107.1-.112.09-.116.09-.121.08-.124.08-.127.06-.131.07-.134.05-.136.05-.138.05-.141.03-.142.03-.143.02-.144.02-.145.01h-.29l-.144-.02-.144-.02-.142-.02-.141-.04-.14-.03-.137-.05-.135-.05-.132-.06-.13-.07-.125-.07-.123-.08-.118-.08-.114-.09-.11-.1-.105-.1L.878 22.79l-.1-.1-.095-.11-.089-.11-.084-.12-.078-.12-.072-.13-.066-.13-.059-.13-.053-.14-.047-.14-.039-.13-.033-.15-.026-.14-.02-.14-.012-.15L0 20.71l.002-.15.008-.14.016-.15.023-.14.029-.14.037-.14.043-.14.05-.13.056-.14.063-.13.069-.13.075-.12.08-.12.087-.12.092-.11.098-.11.102-.1.108-.1.111-.09.117-.09.12-.08.124-.07.128-.07.13-.06.134-.06.136-.05.139-.04.14-.04.142-.03.143-.02.144-.02h.145l.145-.01z"/>
        <path d="M20.786 0l.145.01.144.01.143.03.142.03.141.03.138.05.136.05.134.05.131.06.127.07.124.08.121.08.116.09.112.09.107.1.103.1.097.1.092.12.087.11.081.12.075.13.069.13.062.12.057.14.049.13.044.14.036.14.029.15.023.14.016.14.009.15.001.14-.005.15-.012.14-.019.15-.026.14-.033.14-.04.14-.047.14-.053.13-.059.13-.066.13-.072.13-.078.12-.084.12-.089.11-.095.11-.1.11L5.121 22.79l-.105.11-.11.09-.114.09-.118.08-.122.08-.126.07-.129.07-.133.06-.135.05-.137.05-.139.04-.142.03-.142.03-.144.02-.144.01h-.29l-.145-.01-.144-.01-.143-.03-.142-.02-.141-.04-.138-.05-.136-.04-.134-.06-.13-.06-.128-.07-.124-.08-.12-.08-.117-.09-.112-.09-.107-.09-.102-.11-.098-.1-.092-.12-.087-.11-.081-.12-.075-.13-.068-.12-.063-.13-.056-.14-.05-.13-.043-.14-.037-.14-.029-.15-.023-.14-.016-.14-.008-.15L0 20.64l.005-.15.012-.14.02-.15.026-.14.033-.14.039-.14.047-.14.053-.13.059-.13.066-.13.072-.13L.51 19l.084-.12.09-.11.094-.11.1-.11L18.556.88l.105-.11.11-.09.114-.09.118-.08.123-.08.126-.07.129-.07.132-.06.135-.05.137-.05.14-.04.141-.03.142-.03.144-.02.145-.01h.144z"/>
    </g>
</svg>
