<?xml version="1.0" encoding="UTF-8"?>
<svg width="47px" height="72px" viewBox="0 0 47 72" version="1.1" xmlns="http://www.w3.org/2000/svg" xmlns:xlink="http://www.w3.org/1999/xlink">
    <!-- Generator: sketchtool 46 (44423) - http://www.bohemiancoding.com/sketch -->
    <title>9E185601-1068-4C6F-80D9-048D40C517DD</title>
    <desc>Created with sketchtool.</desc>
    <defs></defs>
    <g id="Fabulive---Broadcast-" stroke="none" stroke-width="1" fill="none" fill-rule="evenodd">
        <g id="fab-broadcast-not-signed" transform="translate(-838.000000, -822.000000)">
            <g id="Gift-Panel" transform="translate(325.000000, 800.000000)">
                <g id="Gifts" transform="translate(0.000000, 15.000000)">
                    <g id="icoMirror" transform="translate(494.571429, 1.000000)">
                        <rect id="Rectangle-10-Copy-6" stroke="#FF3E7D" stroke-width="2" x="1" y="1" width="82" height="82"></rect>
                        <g id="Group-7-Copy-2" transform="translate(18.875000, 6.687500)">
                            <g id="Group-25">
                                <path d="M17.48125,53.61125 C17.7875,53.033125 17.565625,52.3184375 16.9875,52.014375 C15.203125,51.075625 11.590625,49.175625 9.803125,48.236875 C9.225,47.9328125 8.5125,48.155 8.20625,48.7328125 C6.765625,51.4721875 2.834375,58.950625 0.46875,63.4475 C-0.565625,65.415 0.190625,67.8490625 2.15625,68.88375 C2.8625,69.2546875 3.603125,69.64375 4.30625,70.0146875 C6.275,71.0496875 8.709375,70.2934375 9.74375,68.3259375 C12.109375,63.8290625 16.040625,56.3503125 17.48125,53.61125 Z" id="Fill-105" fill="#FFBC2C"></path>
                                <path d="M13.396875,50.125625 L16.571875,51.795625 C17.378125,52.2203125 17.6875,53.219375 17.2625,54.0271875 C15.803125,56.804375 12.571875,62.9484375 10.309375,67.250625 C9.6625,68.480625 8.553125,69.4034375 7.225,69.815625 C5.9,70.228125 4.4625,70.09625 3.23125,69.449375 L3.23125,69.449375 L13.396875,50.125625 Z" id="Fill-106" fill="#F79E17"></path>
                                <path d="M18.675,32.581875 C13.8375,27.7909375 13.009375,18.9671875 17.125,11.141875 C21.946875,1.97 31.753125,-2.3796875 39.003125,1.4346875 C46.25625,5.2490625 48.228125,15.7921875 43.403125,24.9640625 C39.2875,32.789375 31.546875,37.1046875 24.859375,35.8340625 L16.4875,51.7515625 L10.303125,48.499375 L18.675,32.581875 Z" id="Fill-107" fill="#3DDEBF"></path>
                                <path d="M39.003125,1.4346875 C46.25625,5.2490625 48.228125,15.7921875 43.403125,24.9640625 C39.2875,32.789375 31.546875,37.1046875 24.859375,35.8340625 L16.4875,51.7515625 L13.396875,50.125625 L39.003125,1.4346875 Z" id="Fill-108" fill="#25B9A4"></path>
                                <path d="M37.71875,3.71875 C37.5625,3.64 37.40625,3.5640625 37.25,3.493125 C36.825,3.3034375 36.384375,3.145625 35.9375,3.021875 C35.534375,2.9109375 35.125,2.826875 34.7125,2.7690625 C34.36875,2.7209375 34.025,2.6909375 33.678125,2.67875 C31.475,2.6009375 29.290625,3.21875 27.35,4.230625 C27.059375,4.381875 26.775,4.5425 26.49375,4.71125 C24.565625,5.870625 22.88125,7.416875 21.49375,9.184375 C20.69375,10.2065625 19.990625,11.305 19.39375,12.4575 C17.946875,15.239375 17.1,18.35875 17.103125,21.5025 C17.103125,21.9271875 17.11875,22.3521875 17.153125,22.775625 C17.178125,23.1003125 17.2125,23.424375 17.259375,23.746875 C17.553125,25.853125 18.2875,27.9278125 19.575,29.6365625 C19.784375,29.91375 20.00625,30.1803125 20.240625,30.4340625 C20.559375,30.774375 20.9,31.0921875 21.2625,31.3828125 C21.721875,31.7521875 22.21875,32.0775 22.74375,32.3525 C23.265625,32.6278125 23.815625,32.8528125 24.38125,33.0234375 C24.825,33.1578125 25.28125,33.2584375 25.740625,33.3265625 C26.084375,33.3771875 26.43125,33.409375 26.775,33.424375 C28.9125,33.5159375 31.040625,32.94625 32.940625,31.995625 C33.234375,31.85 33.51875,31.6953125 33.803125,31.5321875 C34.16875,31.3190625 34.528125,31.091875 34.878125,30.8515625 C37.5,29.0528125 39.609375,26.550625 41.084375,23.744375 C41.6875,22.596875 42.1875,21.3946875 42.56875,20.1553125 C43.221875,18.0409375 43.528125,15.8109375 43.39375,13.6 C43.375,13.2728125 43.34375,12.94625 43.303125,12.62125 C43.0375,10.4484375 42.309375,8.29875 40.996875,6.529375 C40.790625,6.250625 40.56875,5.9821875 40.334375,5.7259375 C40.053125,5.4190625 39.753125,5.13 39.434375,4.861875 C39.078125,4.5625 38.7,4.29 38.303125,4.0475 C38.153125,3.956875 38.003125,3.87125 37.85,3.78875 C37.784375,3.7534375 37.784375,3.7534375 37.71875,3.71875 Z" id="Fill-109" fill="#B3E8FF"></path>
                                <path d="M24.503125,42.1528125 C25.175,40.8728125 24.684375,39.2871875 23.403125,38.6140625 L17.21875,35.361875 C15.940625,34.68875 14.353125,35.18125 13.68125,36.46125 C13.009375,37.7409375 13.5,39.3265625 14.78125,39.9996875 L20.965625,43.251875 C22.24375,43.925 23.828125,43.4325 24.503125,42.1528125 Z" id="Fill-110" fill="#FFBC2C"></path>
                                <path d="M24.503125,42.1528125 C23.828125,43.4325 22.24375,43.925 20.965625,43.251875 L14.78125,39.9996875 C13.5,39.3265625 13.009375,37.7409375 13.68125,36.46125 L24.503125,42.1528125 Z" id="Fill-111" fill="#F79E17"></path>
                                <path d="M35.953125,3.0265625 C36.396875,3.1496875 36.828125,3.3059375 37.25,3.493125 C37.40625,3.5640625 37.5625,3.64 37.71875,3.71875 C37.784375,3.7534375 37.784375,3.7534375 37.85,3.78875 C38.003125,3.87125 38.153125,3.956875 38.303125,4.0475 C38.7,4.29 39.078125,4.5625 39.434375,4.861875 C39.753125,5.13 40.053125,5.4190625 40.334375,5.7259375 C40.56875,5.9821875 40.790625,6.250625 40.996875,6.529375 C41.7875,7.59375 42.365625,8.795625 42.759375,10.0575 L17.459375,17.9165625 C17.8375,16.0175 18.5,14.173125 19.39375,12.4575 C19.990625,11.305 20.69375,10.2065625 21.49375,9.184375 C22.15,8.3509375 22.86875,7.5665625 23.65,6.84875 L35.953125,3.0265625 Z" id="Fill-112" fill="#FFFFFF"></path>
                                <path d="M42.759375,10.0575 C43.01875,10.8934375 43.196875,11.755625 43.303125,12.62125 C43.34375,12.94625 43.375,13.2728125 43.39375,13.6 C43.50625,15.4721875 43.303125,17.358125 42.84375,19.1759375 L18.059375,26.8759375 C17.66875,25.87 17.40625,24.8125 17.259375,23.746875 C17.2125,23.424375 17.178125,23.1003125 17.153125,22.775625 C17.11875,22.3521875 17.103125,21.9271875 17.103125,21.5025 C17.103125,20.2978125 17.225,19.0965625 17.459375,17.9165625 L42.759375,10.0575 Z" id="Fill-113" fill="#B3E8FF"></path>
                                <path d="M42.84375,19.1759375 C42.7625,19.5046875 42.66875,19.83125 42.56875,20.1553125 C42.1875,21.3946875 41.6875,22.596875 41.084375,23.744375 C39.6375,26.4984375 37.578125,28.9596875 35.025,30.7503125 L26.471875,33.406875 C26.228125,33.3890625 25.984375,33.3621875 25.740625,33.3265625 C25.28125,33.2584375 24.825,33.1578125 24.38125,33.0234375 C23.815625,32.8528125 23.265625,32.6278125 22.74375,32.3525 C22.21875,32.0775 21.721875,31.7521875 21.2625,31.3828125 C20.9,31.0921875 20.559375,30.774375 20.240625,30.4340625 C20.00625,30.1803125 19.784375,29.91375 19.575,29.6365625 C18.9375,28.7921875 18.4375,27.85875 18.059375,26.8759375 L42.84375,19.1759375 Z" id="Fill-114" fill="#B3E8FF"></path>
                                <path d="M29.09375,11.7128125 C30.371875,12.3859375 30.865625,13.9715625 30.19375,15.25125 C29.51875,16.5309375 27.934375,17.0234375 26.653125,16.350625 C25.375,15.6775 24.88125,14.091875 25.55625,12.811875 C26.228125,11.5321875 27.8125,11.0396875 29.09375,11.7128125 Z" id="Fill-115" fill="#FFFFFF"></path>
                                <path d="M33.63125,9.6375 C34.484375,10.08625 34.8125,11.143125 34.365625,11.99625 C33.915625,12.8496875 32.859375,13.1778125 32.00625,12.7290625 C31.153125,12.2803125 30.825,11.2234375 31.271875,10.3703125 C31.721875,9.5171875 32.778125,9.18875 33.63125,9.6375 Z" id="Fill-116" fill="#FFFFFF"></path>
                            </g>
                        </g>
                    </g>
                </g>
            </g>
        </g>
    </g>
</svg>