<?xml version="1.0" encoding="UTF-8"?>
<svg width="39px" height="76px" viewBox="0 0 39 76" version="1.1" xmlns="http://www.w3.org/2000/svg" xmlns:xlink="http://www.w3.org/1999/xlink">
    <!-- Generator: sketchtool 46 (44423) - http://www.bohemiancoding.com/sketch -->
    <title>E545870A-CAA7-446B-A9FF-919E88AF2BBE</title>
    <desc>Created with sketchtool.</desc>
    <defs></defs>
    <g id="Fabulive---Broadcast-" stroke="none" stroke-width="1" fill="none" fill-rule="evenodd">
        <g id="fab-broadcast-not-signed" transform="translate(-636.000000, -820.000000)">
            <g id="Gift-Panel" transform="translate(325.000000, 800.000000)">
                <g id="Gifts" transform="translate(0.000000, 15.000000)">
                    <g id="icoMascara" transform="translate(288.285714, 1.000000)">
                        <polygon id="Stroke-33-Copy" stroke="#000000" opacity="0" stroke-linecap="round" stroke-linejoin="round" points="2 82 82 82 82 2 2 2"></polygon>
                        <g id="Group-30" transform="translate(22.625000, 4.187500)">
                            <polygon id="Fill-35" fill="#737373" points="25.251875 20.86375 34.3445312 20.86375 34.3445312 13.4242812 25.251875 13.4242812"></polygon>
                            <polygon id="Fill-36" fill="#3E3E3E" points="29.7984375 20.86375 34.3447812 20.86375 34.3447812 13.4242812 29.7984375 13.4242812"></polygon>
                            <path d="M8.125,66.53375 C8.125,65.5071875 7.291875,64.6740625 6.2653125,64.6740625 C5.23875,64.6740625 4.4053125,65.5071875 4.4053125,66.53375 L4.4053125,71.0803125 C4.4053125,72.1065625 5.23875,72.94 6.2653125,72.94 C7.291875,72.94 8.125,72.1065625 8.125,71.0803125 L8.125,66.53375 Z" id="Fill-55" fill="#FFFFFF"></path>
                            <polygon id="Fill-56" fill="#3DDEBF" points="17.6309375 51.448125 0.2725 51.448125 4.4053125 75.4196875 13.498125 75.4196875"></polygon>
                            <polygon id="Fill-57" fill="#25B9A4" points="16.1346875 60.1275 13.498125 75.4196875 4.4053125 75.4196875 1.76875 60.1275"></polygon>
                            <polygon id="Fill-58" fill="#00A39F" points="13.498125 75.4196875 8.96125 75.4196875 8.96125 51.448125 17.6309375 51.448125"></polygon>
                            <polygon id="Fill-59" fill="#3DDEBF" points="38.4775 20.86375 21.1190625 20.86375 25.251875 75.4196875 34.3446875 75.4196875"></polygon>
                            <polygon id="Fill-60" fill="#25B9A4" points="37.6321875 32.023125 34.3446875 75.4196875 25.251875 75.4196875 21.964375 32.023125"></polygon>
                            <polygon id="Fill-61" fill="#00A39F" points="34.3446875 75.4196875 29.808125 75.4196875 29.808125 20.86375 38.4775 20.86375"></polygon>
                            <polygon id="Fill-62" fill="#FFBC2C" points="37.6321875 32.023125 21.964375 32.023125 21.71375 28.7165625 37.8828125 28.7165625"></polygon>
                            <polygon id="Fill-63" fill="#4D4D4D" points="7.711875 51.52375 10.1916875 51.52375 10.1916875 14.25125 7.711875 14.25125"></polygon>
                            <polygon id="Fill-64" fill="#FFBC2C" points="16.1346875 60.1275 1.76875 60.1275 1.19875 56.82125 16.7046875 56.82125"></polygon>
                            <path d="M28.1978125,30.7571875 C28.1978125,29.7309375 27.364375,28.8975 26.3378125,28.8975 C25.3115625,28.8975 24.478125,29.7309375 24.478125,30.7571875 L24.478125,45.63625 C24.478125,46.6628125 25.3115625,47.4959375 26.3378125,47.4959375 C27.364375,47.4959375 28.1978125,46.6628125 28.1978125,45.63625 L28.1978125,30.7571875 Z" id="Fill-65" fill="#FFFFFF"></path>
                            <path d="M28.1978125,53.4890625 C28.1978125,52.4625 27.364375,51.6290625 26.3378125,51.6290625 C25.3115625,51.6290625 24.478125,52.4625 24.478125,53.4890625 C24.478125,54.5153125 25.3115625,55.34875 26.3378125,55.34875 C27.364375,55.34875 28.1978125,54.5153125 28.1978125,53.4890625 Z" id="Fill-66" fill="#FFFFFF"></path>
                            <polygon id="Fill-37" fill="#595959" points="2.7521875 15.3960625 6.88684375 15.3960625 6.88684375 14.8960625 2.7521875 14.8960625"></polygon>
                            <polygon id="Fill-38" fill="#595959" points="2.7521875 13.3298125 6.88684375 13.3298125 6.88684375 12.8298125 2.7521875 12.8298125"></polygon>
                            <polygon id="Fill-39" fill="#595959" points="2.7521875 11.26325 6.88684375 11.26325 6.88684375 10.76325 2.7521875 10.76325"></polygon>
                            <polygon id="Fill-40" fill="#595959" points="2.7521875 9.1966875 6.88684375 9.1966875 6.88684375 8.6966875 2.7521875 8.6966875"></polygon>
                            <polygon id="Fill-41" fill="#595959" points="2.7521875 7.5435625 6.88684375 7.5435625 6.88684375 7.0435625 2.7521875 7.0435625"></polygon>
                            <polygon id="Fill-42" fill="#595959" points="2.7521875 5.477 6.88684375 5.477 6.88684375 4.977 2.7521875 4.977"></polygon>
                            <polygon id="Fill-43" fill="#595959" points="2.7521875 3.4104375 6.88684375 3.4104375 6.88684375 2.9104375 2.7521875 2.9104375"></polygon>
                            <polygon id="Fill-44" fill="#595959" points="2.7521875 1.7573125 6.88684375 1.7573125 6.88684375 1.2573125 2.7521875 1.2573125"></polygon>
                            <polygon id="Fill-45" fill="#595959" points="11.018125 14.5695 15.1527813 14.5695 15.1527813 14.0695 11.018125 14.0695"></polygon>
                            <polygon id="Fill-46" fill="#595959" points="11.018125 12.5029375 15.1527813 12.5029375 15.1527813 12.0029375 11.018125 12.0029375"></polygon>
                            <polygon id="Fill-47" fill="#595959" points="11.018125 10.4366875 15.1527813 10.4366875 15.1527813 9.9366875 11.018125 9.9366875"></polygon>
                            <polygon id="Fill-48" fill="#595959" points="11.018125 8.370125 15.1527813 8.370125 15.1527813 7.870125 11.018125 7.870125"></polygon>
                            <polygon id="Fill-49" fill="#595959" points="11.018125 6.7166875 15.1527813 6.7166875 15.1527813 6.2166875 11.018125 6.2166875"></polygon>
                            <polygon id="Fill-50" fill="#595959" points="11.018125 4.6504375 15.1527813 4.6504375 15.1527813 4.1504375 11.018125 4.1504375"></polygon>
                            <polygon id="Fill-51" fill="#595959" points="11.018125 2.583875 15.1527813 2.583875 15.1527813 2.083875 11.018125 2.083875"></polygon>
                            <polygon id="Fill-52" fill="#595959" points="11.018125 0.9304375 15.1527813 0.9304375 15.1527813 0.4304375 11.018125 0.4304375"></polygon>
                            <path d="M11.8446875,1.769375 C11.8446875,0.8021875 11.0596875,0.0171875 10.0928125,0.0171875 L7.810625,0.0171875 C6.84375,0.0171875 6.05875,0.8021875 6.05875,1.769375 L6.05875,15.6240625 C6.05875,16.5909375 6.84375,17.3759375 7.810625,17.3759375 L10.0928125,17.3759375 C11.0596875,17.3759375 11.8446875,16.5909375 11.8446875,15.6240625 L11.8446875,1.769375 Z" id="Fill-53" fill="#595959"></path>
                            <path d="M10.0928125,0.0171875 C11.0596875,0.0171875 11.8446875,0.8021875 11.8446875,1.769375 L11.8446875,15.6240625 C11.8446875,16.5909375 11.0596875,17.3759375 10.0928125,17.3759375 L8.9515625,17.3759375 L8.9515625,0.0171875 L10.0928125,0.0171875 Z" id="Fill-54" fill-opacity="0.3" fill="#000000"></path>
                        </g>
                        <rect id="Rectangle-10-Copy-4" stroke="#F59FBC" opacity="0.300000012" x="0.5" y="0.5" width="83" height="83"></rect>
                    </g>
                </g>
            </g>
        </g>
    </g>
</svg>