<?xml version="1.0" encoding="UTF-8"?>
<svg width="59px" height="70px" viewBox="0 0 59 70" version="1.1" xmlns="http://www.w3.org/2000/svg" xmlns:xlink="http://www.w3.org/1999/xlink">
    <!-- Generator: sketchtool 46 (44423) - http://www.bohemiancoding.com/sketch -->
    <title>A7D761C9-18ED-430C-96F7-D2A94E7EFD51</title>
    <desc>Created with sketchtool.</desc>
    <defs></defs>
    <g id="Fabulive---Broadcast-" stroke="none" stroke-width="1" fill="none" fill-rule="evenodd">
        <g id="fab-broadcast-not-signed" transform="translate(-729.000000, -823.000000)">
            <g id="Gift-Panel" transform="translate(325.000000, 800.000000)">
                <g id="Gifts" transform="translate(0.000000, 15.000000)">
                    <g id="icoPalette" transform="translate(391.428571, 1.000000)">
                        <polygon id="Stroke-79-Copy" stroke="#000000" opacity="0" stroke-linecap="round" stroke-linejoin="round" points="2 82 82 82 82 2 2 2"></polygon>
                        <g id="Group-6-Copy-2" transform="translate(12.625000, 7.312500)">
                            <path d="M57.809375,20.9553125 C59.55,17.965625 58.5375,14.124375 55.546875,12.3828125 L35.9146875,0.9475 C32.925,-0.7940625 29.08375,0.2196875 27.3421875,3.209375 L1.11875,48.231875 C-0.6228125,51.2215625 0.390625,55.0628125 3.380625,56.804375 L23.0134375,68.2396875 C26.0034375,69.9809375 29.8446875,68.9675 31.5859375,65.9778125 L57.809375,20.9553125 Z" id="Fill-81" fill="#3CDFC0"></path>
                            <path d="M35.473125,5.790625 C38.041875,7.286875 38.9128125,10.5875 37.4165625,13.1565625 C35.9203125,15.725625 32.6196875,16.5965625 30.050625,15.1 C27.4815625,13.60375 26.610625,10.303125 28.1071875,7.7340625 C29.6034375,5.1653125 32.9040625,4.294375 35.473125,5.790625 Z" id="Fill-82" fill="#FCDBD2"></path>
                            <path d="M55.546875,12.3828125 C58.5375,14.124375 59.55,17.965625 57.809375,20.9553125 L31.5859375,65.9778125 C29.8446875,68.9675 26.0034375,69.9809375 23.0134375,68.2396875 L13.1971875,62.521875 L45.73125,6.6653125 L55.546875,12.3828125 Z" id="Fill-83" fill="#25B9A4"></path>
                            <path d="M51.553125,15.1565625 C54.121875,16.6528125 54.99375,19.9534375 53.496875,22.5225 C52,25.0915625 48.7,25.9621875 46.13125,24.4659375 C43.5615625,22.9696875 42.690625,19.6690625 44.1871875,17.1 C45.684375,14.5309375 48.984375,13.6603125 51.553125,15.1565625 Z" id="Fill-85" fill="#EC9863"></path>
                            <path d="M28.07875,18.4853125 C30.6478125,19.9815625 31.51875,23.2821875 30.0225,25.85125 C28.5259375,28.4203125 25.225625,29.29125 22.6565625,27.7946875 C20.0875,26.2984375 19.2165625,22.9978125 20.7128125,20.4290625 C22.209375,17.86 25.5096875,16.9890625 28.07875,18.4853125 Z" id="Fill-87" fill="#82849D"></path>
                            <path d="M44.15875,27.85125 C46.728125,29.3475 47.6,32.648125 46.103125,35.2171875 C44.6059375,37.78625 41.305625,38.6571875 38.7365625,37.160625 C36.1675,35.664375 35.2965625,32.36375 36.7928125,29.7946875 C38.289375,27.2259375 41.5896875,26.355 44.15875,27.85125 Z" id="Fill-89" fill="#FAAF88"></path>
                            <path d="M20.6846875,31.18 C23.25375,32.6765625 24.1246875,35.976875 22.628125,38.5459375 C21.131875,41.115 17.83125,41.9859375 15.2625,40.4896875 C12.6934375,38.993125 11.8225,35.6925 13.31875,33.12375 C14.815,30.5546875 18.115625,29.68375 20.6846875,31.18 Z" id="Fill-91" fill="#FCB92A"></path>
                            <path d="M36.7646875,40.5459375 C39.33375,42.0421875 40.2046875,45.3428125 38.708125,47.911875 C37.211875,50.4809375 33.91125,51.351875 31.3421875,49.8553125 C28.7734375,48.3590625 27.9025,45.0584375 29.39875,42.489375 C30.895,39.920625 34.195625,39.0496875 36.7646875,40.5459375 Z" id="Fill-93" fill="#FFFDFE"></path>
                            <polygon id="Fill-95" fill="#5959FF" points="22.888125 58.5325 11.8859375 52.1240625 10.9 53.816875 21.9021875 60.225"></polygon>
                            <polygon id="Fill-96" fill-opacity="0.1" fill="#000000" points="21.9021875 60.225 10.9 53.816875 11.393125 52.9703125 22.395 59.37875"></polygon>
                            <path d="M10.68625,50.291875 C12.32125,51.2440625 13.2065625,52.775625 12.6625,53.71 C12.1184375,54.6440625 10.349375,54.629375 8.7146875,53.6771875 C7.0796875,52.725 6.1940625,51.1934375 6.7384375,50.259375 C7.2825,49.325 9.0515625,49.3396875 10.68625,50.291875 Z" id="Fill-97" fill="#FFFFFF"></path>
                            <path d="M25.07375,58.671875 C26.7084375,59.6240625 27.5940625,61.155625 27.05,62.09 C26.505625,63.0240625 24.736875,63.009375 23.101875,62.0571875 C21.4671875,61.105 20.5815625,59.5734375 21.125625,58.639375 C21.6696875,57.705 23.43875,57.7196875 25.07375,58.671875 Z" id="Fill-98" fill="#FCDBD2"></path>
                            <polygon id="Fill-99" fill="#5959FF" points="26.33875 52.608125 15.3365625 46.2 14.350625 47.8925 25.3528125 54.3009375"></polygon>
                            <polygon id="Fill-100" fill-opacity="0.1" fill="#000000" points="25.3528125 54.3009375 14.350625 47.8925 14.84375 47.04625 25.845625 53.454375"></polygon>
                            <path d="M14.136875,44.3678125 C15.771875,45.32 16.6571875,46.8515625 16.113125,47.785625 C15.5690625,48.72 13.8,48.7053125 12.165,47.753125 C10.5303125,46.8009375 9.6446875,45.269375 10.1890625,44.335 C10.733125,43.4009375 12.5021875,43.415625 14.136875,44.3678125 Z" id="Fill-101" fill="#FFFFFF"></path>
                            <path d="M28.524375,52.7478125 C30.1590625,53.7 31.0446875,55.2315625 30.500625,56.165625 C29.95625,57.1 28.1871875,57.0853125 26.5525,56.133125 C24.9178125,55.1809375 24.0321875,53.649375 24.57625,52.715 C25.1203125,51.7809375 26.889375,51.795625 28.524375,52.7478125 Z" id="Fill-102" fill="#FCDBD2"></path>
                        </g>
                        <rect id="Rectangle-10-Copy-5" stroke="#F59FBC" opacity="0.300000012" x="0.5" y="0.5" width="83" height="83"></rect>
                    </g>
                </g>
            </g>
        </g>
    </g>
</svg>