<?xml version="1.0" encoding="UTF-8"?>
<svg width="51px" height="67px" viewBox="0 0 51 67" version="1.1" xmlns="http://www.w3.org/2000/svg" xmlns:xlink="http://www.w3.org/1999/xlink">
    <!-- Generator: sketchtool 46 (44423) - http://www.bohemiancoding.com/sketch -->
    <title>C4181849-3DDD-4DFD-8811-F0E90F1C24CC</title>
    <desc>Created with sketchtool.</desc>
    <defs></defs>
    <g id="Fabulive---Broadcast-" stroke="none" stroke-width="1" fill="none" fill-rule="evenodd">
        <g id="fab-broadcast-not-signed" transform="translate(-940.000000, -825.000000)">
            <g id="Gift-Panel" transform="translate(325.000000, 800.000000)">
                <g id="Gifts" transform="translate(0.000000, 15.000000)">
                    <g id="icoBrush" transform="translate(597.714286, 1.000000)">
                        <rect id="Rectangle-10-Copy-7" stroke="#F59FBC" opacity="0.300000012" x="0.5" y="0.5" width="83" height="83"></rect>
                        <g id="Group-10-Copy-2" transform="translate(18.000000, 9.000000)">
                            <polygon id="Fill-69" fill="#ED9964" points="35.9271875 5.381875 28.10125 2.1259375 22.095625 23.559375 26.1234375 25.5203125"></polygon>
                            <polygon id="Fill-70" fill="#F4B28C" points="20.735 0.2003125 28.10125 2.1259375 22.095625 23.559375 18.068125 21.59875"></polygon>
                            <polygon id="Fill-71" fill="#D27F4B" points="35.9271875 5.381875 43.316875 9.533125 30.1509375 27.4809375 26.1234375 25.5203125"></polygon>
                            <polygon id="Fill-72" fill="#B4653A" points="49.37625 14.1434375 43.316875 9.533125 30.1509375 27.4809375 34.17875 29.441875"></polygon>
                            <path d="M34.8040625,31.5684375 C35.2,30.7553125 34.86125,29.7740625 34.048125,29.378125 L18.1984375,21.6621875 C17.3853125,21.2665625 16.4040625,21.6053125 16.0084375,22.418125 L15.273125,23.928125 C14.8775,24.74125 15.21625,25.7225 16.0290625,26.118125 L31.8790625,33.8340625 C32.691875,34.23 33.673125,33.89125 34.0690625,33.0784375 L34.8040625,31.5684375 Z" id="Fill-73" fill="#FCB92A"></path>
                            <path d="M34.4328125,32.33125 L34.0690625,33.0784375 C33.673125,33.89125 32.691875,34.23 31.8790625,33.8340625 L16.0290625,26.118125 C15.21625,25.7225 14.8775,24.74125 15.273125,23.928125 L15.636875,23.1809375 L34.4328125,32.33125 Z" id="Fill-74" fill="#F79E17"></path>
                            <polygon id="Fill-75" fill="#6EC2F0" points="31.5525 33.6990625 16.336875 26.291875 0.215 59.4081562 15.430625 66.8154375"></polygon>
                            <polygon id="Fill-76" fill="#2694D0" points="31.5525 33.6990625 23.9446875 29.9953125 7.8228125 63.1117812 15.430625 66.8154375"></polygon>
                            <path d="M17.90625,37.850625 C18.4475,36.7390625 17.984375,35.3975 16.8728125,34.85625 C15.76125,34.3153125 14.4196875,34.7784375 13.87875,35.89 L8.214375,47.5253125 C7.673125,48.636875 8.13625,49.9784375 9.2478125,50.5196875 C10.3590625,51.060625 11.7009375,50.5975 12.241875,49.4859375 L17.90625,37.850625 Z" id="Fill-77" fill="#FFFFFF"></path>
                            <path d="M9.4096875,55.3038125 C9.9509375,54.1923438 9.4878125,52.8506875 8.37625,52.3096875 C7.2646875,51.7684375 5.923125,52.2315625 5.3821875,53.3430625 C4.8409375,54.4545313 5.3040625,55.7961875 6.415625,56.3372813 C7.526875,56.878375 8.86875,56.4152813 9.4096875,55.3038125 Z" id="Fill-78" fill="#FFFFFF"></path>
                        </g>
                    </g>
                </g>
            </g>
        </g>
    </g>
</svg>