<?xml version="1.0" encoding="UTF-8"?>
<svg width="45px" height="61px" viewBox="0 0 45 61" version="1.1" xmlns="http://www.w3.org/2000/svg" xmlns:xlink="http://www.w3.org/1999/xlink">
    <!-- Generator: sketchtool 46 (44423) - http://www.bohemiancoding.com/sketch -->
    <title>D471E53C-A208-49A1-929F-57A33ECF091F</title>
    <desc>Created with sketchtool.</desc>
    <defs></defs>
    <g id="Fabulive---Broadcast-" stroke="none" stroke-width="1" fill="none" fill-rule="evenodd">
        <g id="fab-broadcast-not-signed" transform="translate(-1149.000000, -831.000000)">
            <g id="Gift-Panel" transform="translate(325.000000, 800.000000)">
                <g id="Gifts" transform="translate(0.000000, 15.000000)">
                    <g id="icoLipstick" transform="translate(804.000000, 1.000000)">
                        <polygon id="Stroke-1-Copy" stroke="#000000" opacity="0" stroke-linecap="round" stroke-linejoin="round" points="2 82 82 82 82 2 2 2"></polygon>
                        <g id="Group-4-Copy-2" transform="translate(20.000000, 15.000000)">
                            <polygon id="Fill-3" fill="#BA2556" points="27.910625 17.9075 37.7492812 17.9075 37.7492812 6.72721875 27.910625 6.72721875"></polygon>
                            <path d="M32.83,0.0190625 C35.545,0.0190625 37.749375,3.025 37.749375,6.7271875 C37.749375,10.4296875 35.545,13.435625 32.83,13.435625 C30.115,13.435625 27.910625,10.4296875 27.910625,6.7271875 C27.910625,3.025 30.115,0.0190625 32.83,0.0190625 Z" id="Fill-4" fill="#FF3E7D"></path>
                            <path d="M31.711875,2.7025 C32.8228125,2.7025 33.724375,3.9046875 33.724375,5.385625 C33.724375,6.8665625 32.8228125,8.0690625 31.711875,8.0690625 C30.60125,8.0690625 29.699375,6.8665625 29.699375,5.385625 C29.699375,3.9046875 30.60125,2.7025 31.711875,2.7025 Z" id="Fill-5" fill="#FFFFFF"></path>
                            <polygon id="Fill-6" fill="#3DDEBF" points="26.121875 33.1128125 39.5382188 33.1128125 39.5382188 17.907625 26.121875 17.907625"></polygon>
                            <polygon id="Fill-7" fill="#00A39F" points="32.83 33.1128125 39.5381563 33.1128125 39.5381563 17.907625 32.83 17.907625"></polygon>
                            <polygon id="Fill-8" fill="#3DDEBF" points="0.18359375 60.3928125 17.177625 60.3928125 17.177625 21.9325 0.18359375 21.9325"></polygon>
                            <polygon id="Fill-9" fill="#00A39F" points="8.680625 60.3928125 17.177625 60.3928125 17.177625 21.9325 8.680625 21.9325"></polygon>
                            <polygon id="Fill-10" fill="#3DDEBF" points="24.333125 60.3928125 41.3271563 60.3928125 41.3271563 38.4794687 24.333125 38.4794687"></polygon>
                            <polygon id="Fill-11" fill="#25B9A4" points="24.333125 60.3928125 41.3271563 60.3928125 41.3271563 38.4794687 24.333125 38.4794687"></polygon>
                            <polygon id="Fill-12" fill="#00A39F" points="32.83 60.3928125 41.327 60.3928125 41.327 38.4794687 32.83 38.4794687"></polygon>
                            <path d="M6.4446875,27.5225 C6.4446875,26.411875 5.5428125,25.5103125 4.4321875,25.5103125 C3.321375,25.5103125 2.419625,26.411875 2.419625,27.5225 L2.419625,43.6221875 C2.419625,44.7328125 3.321375,45.6346875 4.4321875,45.6346875 C5.5428125,45.6346875 6.4446875,44.7328125 6.4446875,43.6221875 L6.4446875,27.5225 Z" id="Fill-13" fill="#FFFFFF"></path>
                            <path d="M6.5250625,52.0125 C6.5250625,50.9015625 5.6231875,50 4.5125625,50 C3.40175,50 2.5,50.9015625 2.5,52.0125 C2.5,53.123125 3.40175,54.0246875 4.5125625,54.0246875 C5.6231875,54.0246875 6.5250625,53.123125 6.5250625,52.0125 Z" id="Fill-14" fill="#FFFFFF"></path>
                            <path d="M31.8375625,22.0125 C31.8375625,20.9015625 30.9356875,20 29.8250625,20 C28.71425,20 27.8125,20.9015625 27.8125,22.0125 C27.8125,23.123125 28.71425,24.0246875 29.8250625,24.0246875 C30.9356875,24.0246875 31.8375625,23.123125 31.8375625,22.0125 Z" id="Fill-14-Copy" fill="#FFFFFF"></path>
                            <path d="M44.4575,35.7959375 C44.4575,34.315 43.2553125,33.1128125 41.774375,33.1128125 L23.885625,33.1128125 C22.4046875,33.1128125 21.2025,34.315 21.2025,35.7959375 C21.2025,37.276875 22.4046875,38.479375 23.885625,38.479375 L41.774375,38.479375 C43.2553125,38.479375 44.4575,37.276875 44.4575,35.7959375 Z" id="Fill-15" fill="#FFBC2C"></path>
                            <path d="M44.4575,35.7959375 C44.4575,37.276875 43.2315625,38.479375 41.7215625,38.479375 L23.9384375,38.479375 C22.4284375,38.479375 21.2025,37.276875 21.2025,35.7959375 L44.4575,35.7959375 Z" id="Fill-16" fill="#F79E17"></path>
                        </g>
                        <rect id="Rectangle-10-Copy-9" stroke="#F59FBC" opacity="0.300000012" x="0.5" y="0.5" width="83" height="83"></rect>
                    </g>
                </g>
            </g>
        </g>
    </g>
</svg>