<?xml version="1.0" encoding="UTF-8"?>
<svg width="57px" height="58px" viewBox="0 0 57 58" version="1.1" xmlns="http://www.w3.org/2000/svg" xmlns:xlink="http://www.w3.org/1999/xlink">
    <!-- Generator: sketchtool 46 (44423) - http://www.bohemiancoding.com/sketch -->
    <title>3E0D57A5-BA65-44E4-A70E-C144775010B8</title>
    <desc>Created with sketchtool.</desc>
    <defs>
        <path d="M16.5934375,2.8375 C16.5934375,1.271875 15.3215625,8.8817842e-15 13.755,8.8817842e-15 L2.838125,8.8817842e-15 C1.2715625,8.8817842e-15 0,1.271875 0,2.8375 L0,8.515625 C0,10.08125 1.2715625,11.353125 2.838125,11.353125 L13.755,11.353125 C15.3215625,11.353125 16.5934375,10.08125 16.5934375,8.515625 L16.5934375,2.8375 Z" id="path-1"></path>
        <path d="M29.636875,1.77635684e-14 C37.813125,8.17875 37.813125,21.4565625 29.634375,29.634375 C21.4565625,37.811875 8.17875,37.8128125 0,29.636875 L29.636875,1.77635684e-14 Z" id="path-3"></path>
    </defs>
    <g id="Fabulive---Broadcast-" stroke="none" stroke-width="1" fill="none" fill-rule="evenodd">
        <g id="fab-broadcast-not-signed" transform="translate(-426.000000, -829.000000)">
            <g id="Gift-Panel" transform="translate(325.000000, 800.000000)">
                <g id="Gifts" transform="translate(0.000000, 15.000000)">
                    <g id="icoPerfume" transform="translate(82.000000, 1.000000)">
                        <polygon id="Stroke-204-Copy" stroke="#000000" opacity="0" stroke-linecap="round" stroke-linejoin="round" points="2 82 82 82 82 2 2 2"></polygon>
                        <g id="Group-3-Copy-2" transform="translate(19.187500, 13.875000)">
                            <polygon id="Fill-206" fill="#DF6300" points="28.125 7.62003125 37.7317187 7.62003125 37.7317187 5 28.125 5"></polygon>
                            <polygon id="Fill-207" fill="#DF6300" points="15.3125 15.492875 26.6659063 15.492875 26.6659063 11.5625 15.3125 11.5625"></polygon>
                            <g id="Rectangle-2" transform="translate(12.812500, 0.312500)">
                                <mask id="mask-2" fill="white">
                                    <use xlink:href="#path-1"></use>
                                </mask>
                                <use id="Mask" fill="#FFBC2C" xlink:href="#path-1"></use>
                                <rect fill="#F79E17" mask="url(#mask-2)" x="-0.3125" y="5.625" width="17.1875" height="7.8125"></rect>
                            </g>
                            <path d="M56.2715625,6.55 C56.2715625,2.934375 53.3371875,0 49.7215625,0 L41.8621875,0 C38.2465625,0 35.3125,2.934375 35.3125,6.55 C35.3125,10.165625 38.2465625,13.1 41.8621875,13.1 L49.7215625,13.1 C53.3371875,13.1 56.2715625,10.165625 56.2715625,6.55 Z" id="Fill-209" fill="#FFBC2C"></path>
                            <path d="M20.95625,14.375 C32.5225,14.375 41.9134375,23.7659375 41.9134375,35.331875 C41.9134375,46.898125 32.5225,56.2884375 20.95625,56.2884375 C9.39,56.2884375 0,46.898125 0,35.331875 C0,23.7659375 9.39,14.375 20.95625,14.375 Z" id="Fill-210" fill="#FF3E7D"></path>
                            <path d="M41.340625,1.25 C40.253125,1.25 39.375,2.13125 39.375,3.215625 C39.375,4.3 40.253125,5.18125 41.340625,5.18125 L50.509375,5.18125 C51.59375,5.18125 52.475,4.3 52.475,3.215625 C52.475,2.13125 51.59375,1.25 50.509375,1.25 L41.340625,1.25 Z" id="Fill-211" fill="#FFFFFF"></path>
                            <g id="Rectangle-8" transform="translate(5.937500, 20.312500)">
                                <mask id="mask-4" fill="white">
                                    <use xlink:href="#path-3"></use>
                                </mask>
                                <use id="Mask" fill="#E82E6B" xlink:href="#path-3"></use>
                                <rect fill="#C3124C" mask="url(#mask-4)" transform="translate(11.494296, 35.869296) rotate(-315.000000) translate(-11.494296, -35.869296) " x="-5.6932044" y="18.6817956" width="34.375" height="34.375"></rect>
                            </g>
                            <path d="M20.9375,14.375 C32.4996875,14.378125 41.8878125,23.7634375 41.8909375,35.3259375 L38.4003125,35.3259375 C38.3971875,25.6896875 30.5740625,17.8671875 20.9375,17.8653125 L20.9375,14.375 Z" id="Fill-213" fill="#E82E6B"></path>
                            <path d="M20.9375,56.2628125 C32.4996875,56.2609375 41.8878125,46.8746875 41.8909375,35.3125 L38.4003125,35.3125 C38.3971875,44.94875 30.5740625,52.77125 20.9375,52.773125 L20.9375,56.2628125 Z" id="Fill-214" fill="#C3124C"></path>
                            <path d="M20.9525,56.2628125 C9.3903125,56.2609375 0.0034375,46.8746875 0,35.3125 L3.4896875,35.3125 C3.4928125,44.94875 11.31625,52.77125 20.9525,52.773125 L20.9525,56.2628125 Z" id="Fill-215" fill="#E82E6B"></path>
                            <path d="M16.6859375,23.75 C18.13375,23.75 19.309375,24.925625 19.309375,26.3734375 C19.309375,27.8215625 18.13375,28.996875 16.6859375,28.996875 C15.2378125,28.996875 14.0625,27.8215625 14.0625,26.3734375 C14.0625,24.925625 15.2378125,23.75 16.6859375,23.75 Z" id="Fill-216" fill="#FFFFFF"></path>
                            <path d="M15.9046875,1.5625 C16.9213468,1.5625 17.746875,2.38802822 17.746875,3.4046875 C17.746875,4.42156622 16.9213468,5.246875 15.9046875,5.246875 C14.8878088,5.246875 14.0625,4.42156622 14.0625,3.4046875 C14.0625,2.38802822 14.8878088,1.5625 15.9046875,1.5625 Z" id="Fill-216-Copy" fill="#FFFFFF"></path>
                            <path d="M10.18,29.0625 C12.3490625,29.0625 14.1103125,30.82375 14.1103125,32.9928125 C14.1103125,35.1615625 12.3490625,36.9228125 10.18,36.9228125 C8.01125,36.9228125 6.25,35.1615625 6.25,32.9928125 C6.25,30.82375 8.01125,29.0625 10.18,29.0625 Z" id="Fill-217" fill="#FFFFFF"></path>
                            <path d="M49.7215625,13.1125 C53.3371875,13.1125 56.2715625,10.178125 56.2715625,6.5625 L35.3125,6.5625 C35.3125,10.178125 38.2465625,13.1125 41.8621875,13.1125 L49.7215625,13.1125 Z" id="Fill-218" fill="#F79E17"></path>
                        </g>
                        <rect id="Rectangle-10-Copy-2" stroke="#F59FBC" opacity="0.300000012" x="0.5" y="0.5" width="83" height="83"></rect>
                    </g>
                </g>
            </g>
        </g>
    </g>
</svg>