<?xml version="1.0" encoding="UTF-8"?>
<svg width="31px" height="72px" viewBox="0 0 31 72" version="1.1" xmlns="http://www.w3.org/2000/svg" xmlns:xlink="http://www.w3.org/1999/xlink">
    <!-- Generator: sketchtool 46 (44423) - http://www.bohemiancoding.com/sketch -->
    <title>A3E4F00F-D374-485F-849D-D991F715537D</title>
    <desc>Created with sketchtool.</desc>
    <defs></defs>
    <g id="Fabulive---Broadcast-" stroke="none" stroke-width="1" fill="none" fill-rule="evenodd">
        <g id="fab-broadcast-not-signed" transform="translate(-1052.000000, -822.000000)">
            <g id="Gift-Panel" transform="translate(325.000000, 800.000000)">
                <g id="Gifts" transform="translate(0.000000, 15.000000)">
                    <g id="icoBrushes" transform="translate(700.857143, 1.000000)">
                        <polygon id="Stroke-117-Copy" stroke="#000000" opacity="0" stroke-linecap="round" stroke-linejoin="round" points="2 82 82 82 82 2 2 2"></polygon>
                        <g id="Group-11-Copy-2" transform="translate(27.312500, 6.375000)">
                            <path d="M27.34375,9.375 C24.9165625,11.995625 21.3390111,13.539375 23.4705736,18.590625 C23.4705736,18.590625 24.1790111,18.715625 24.5332298,18.778125 C24.8874486,18.840625 25.625,19.21875 25.625,19.21875 L27.34375,9.375 Z" id="Fill-119" fill="#F4B28C"></path>
                            <path d="M27.34375,9.375 C28.728125,12.6675 31.4825,15.3225 27.750625,19.3403125 L25.625,18.965625 L27.34375,9.375 Z" id="Fill-120" fill="#ED9964"></path>
                            <path d="M23.8825,34.5178125 L21.6690625,34.1278125 C21.6690625,34.1278125 17.026875,60.4559375 16.010625,66.2193125 C15.9028125,66.8301875 16.310625,67.4126875 16.9215625,67.5204062 C16.921875,67.5204687 16.9221875,67.5205312 16.9225,67.5205937 C17.5334375,67.6283125 18.1159375,67.2204375 18.22375,66.6095625 C19.24,60.8461562 23.8825,34.5178125 23.8825,34.5178125 Z" id="Fill-121" fill="#BFBFBF"></path>
                            <path d="M23.8825,34.5178125 L18.22375,66.6090312 C18.1159375,67.2201875 17.533125,67.62825 16.9221875,67.5205 L22.775625,34.3228125 L23.8825,34.5178125 Z" id="Fill-122" fill-opacity="0.1" fill="#000000"></path>
                            <polygon id="Fill-123" fill="#FCB92A" points="28.089375 19.2859375 22.9253125 18.3753125 21.1703125 34.8003125 24.12125 35.320625"></polygon>
                            <polygon id="Fill-124" fill="#F79E17" points="24.12125 35.320625 22.645625 35.060625 25.5075 18.830625 28.089375 19.2859375"></polygon>
                            <path d="M16.69875,23.624375 C16.938125,24.5034375 17.1778125,25.3909375 17.4178125,26.285625 C23.3371875,48.3778125 27.0084375,66.618125 25.610625,66.9926562 C24.213125,67.3671875 18.2721875,49.735 12.3525,27.6428125 C12.1128125,26.748125 11.876875,25.8596875 11.6446875,24.9784375 L16.69875,23.624375 Z" id="Fill-125" fill="#4D4D4D"></path>
                            <path d="M3.193125,3.589375 L7.4171875,19.353125 C7.0428125,19.204375 6.6775,19.0278125 6.324375,18.8240625 C4.40125,17.7134375 2.9978125,15.8846875 2.4228125,13.739375 C1.5921875,10.639375 0.734375,7.4378125 0.275625,5.7253125 C0.185625,5.39 0.2328125,5.033125 0.40625,4.7325 C0.5796875,4.4321875 0.8653125,4.213125 1.2003125,4.123125 L3.193125,3.589375 Z" id="Fill-126" stroke="#F4B28C" fill="#F4B28C"></path>
                            <path d="M7.4171875,19.353125 L3.193125,3.589375 L8.258125,2.2321875 L12.91125,19.598125 L12.6784375,19.660625 C10.9271875,20.1296875 9.0821875,20.0153125 7.4171875,19.353125 Z" id="Fill-127" stroke="#ED9964" fill="#ED9964"></path>
                            <path d="M12.91125,19.598125 L8.258125,2.2321875 L13.323125,0.875 L17.5471875,16.63875 C16.43625,18.0446875 14.895625,19.06625 13.144375,19.535625 L12.91125,19.598125 Z" id="Fill-128" stroke="#D27F4B" fill="#D27F4B"></path>
                            <path d="M13.323125,0.875 L15.3159375,0.3409375 C15.6509375,0.25125 16.008125,0.298125 16.3084375,0.4715625 C16.60875,0.645 16.828125,0.930625 16.9178125,1.2659375 C17.376875,2.9784375 18.2346875,6.18 19.0653125,9.2803125 C19.64,11.4253125 19.3390625,13.7109375 18.22875,15.6340625 C18.025,15.9871875 17.796875,16.3228125 17.5471875,16.63875 L13.323125,0.875 Z" id="Fill-129" stroke="#B4653A" fill="#B4653A"></path>
                            <path d="M8.2853125,19.644375 C9.71,20.0375 11.2265625,20.0496875 12.6784375,19.660625 C12.83375,19.61875 12.9890625,19.5771875 13.144375,19.535625 C14.59625,19.1465625 15.9034375,18.3778125 16.9409375,17.3253125 C17.01625,17.570625 17.088125,17.82 17.1559375,18.073125 C18.546875,23.2646875 17.7309375,28.0009375 15.335,28.6428125 C12.93875,29.285 9.8640625,25.59125 8.4728125,20.3996875 C8.4053125,20.1465625 8.3425,19.895 8.2853125,19.644375 Z" id="Fill-130" fill="#FCB92A"></path>
                            <path d="M12.91125,19.598125 L13.144375,19.535625 C14.59625,19.1465625 15.9034375,18.3778125 16.9409375,17.3253125 C17.01625,17.570625 17.088125,17.82 17.1559375,18.073125 C18.546875,23.2646875 17.7309375,28.000625 15.335,28.6428125 L12.91125,19.598125 Z" id="Fill-131" fill="#F79E17"></path>
                            <polygon id="Fill-132" fill="#6EC2F0" points="29.031875 33.8928125 9.031875 33.8928125 12.3653125 71.080375 25.6984375 71.080375"></polygon>
                            <polygon id="Fill-133" fill="#2694D0" points="25.7115625 71.080375 19.045 71.080375 19.045 33.8928125 29.045 33.8928125"></polygon>
                            <path d="M16.6509375,43.7365625 C16.6509375,42.80625 15.895625,42.0509375 14.9653125,42.0509375 C14.0353125,42.0509375 13.28,42.80625 13.28,43.7365625 L13.28,57.220375 C13.28,58.150625 14.0353125,58.905875 14.9653125,58.905875 C15.895625,58.905875 16.6509375,58.150625 16.6509375,57.220375 L16.6509375,43.7365625 Z" id="Fill-134" fill="#FFFFFF"></path>
                            <path d="M16.6509375,64.3369062 C16.6509375,63.4066562 15.895625,62.6514062 14.9653125,62.6514062 C14.0353125,62.6514062 13.28,63.4066562 13.28,64.3369062 C13.28,65.2671562 14.0353125,66.022375 14.9653125,66.022375 C15.895625,66.022375 16.6509375,65.2671562 16.6509375,64.3369062 Z" id="Fill-135" fill="#FFFFFF"></path>
                        </g>
                        <rect id="Rectangle-10-Copy-8" stroke="#F59FBC" opacity="0.300000012" x="0.5" y="0.5" width="83" height="83"></rect>
                    </g>
                </g>
            </g>
        </g>
    </g>
</svg>