<svg xmlns="http://www.w3.org/2000/svg" width="16" height="14" viewBox="0 0 16 14">
    <g fill="#FF3E7D" fill-rule="evenodd">
        <path d="M8.386 1.395l6.283 10.607c.15.252-.15.758-.448.758H1.653c-.299 0-.598-.506-.448-.758L7.488 1.395c.15-.253.748-.253.898 0m.952-.528l6.284 10.607c.128.217.185.451.185.688 0 .285-.094.586-.247.842a1.758 1.758 0 0 1-.635.632c-.212.119-.45.187-.704.187H1.653a1.44 1.44 0 0 1-.704-.187 1.759 1.759 0 0 1-.636-.632 1.693 1.693 0 0 1-.246-.842c0-.237.057-.471.185-.688L6.536.867c.031-.054.067-.104.107-.15.118-.15.262-.27.425-.36.259-.143.572-.215.869-.215.297 0 .61.072.87.215.216.12.4.29.531.51"/>
        <path d="M7.87 4.458c.302 0 .55.24.55.531v3.656a.542.542 0 0 1-.55.531.542.542 0 0 1-.549-.531V4.989c0-.292.247-.531.55-.531M7.87 11.519a.722.722 0 0 0 .733-.71.722.722 0 0 0-.733-.708.722.722 0 0 0-.732.709c0 .39.33.709.732.709"/>
    </g>
</svg>
