<svg xmlns="http://www.w3.org/2000/svg" width="25" height="25" viewBox="0 0 25 25">
    <g fill="#FF3E7D" fill-rule="evenodd">
        <path d="M7.377 2.536h10.357c2.698 0 4.905 2.203 4.905 4.893v10.326c0 2.69-2.207 4.893-4.905 4.893H7.377c-2.698 0-4.906-2.203-4.906-4.893V7.43c0-2.69 2.208-4.893 4.906-4.893m0-1.886h10.357c1.87 0 3.57.76 4.801 1.99a6.753 6.753 0 0 1 1.995 4.789v10.326c0 1.867-.764 3.56-1.995 4.79a6.78 6.78 0 0 1-4.801 1.989H7.377c-1.871 0-3.571-.764-4.802-1.99A6.75 6.75 0 0 1 .58 17.756V7.43a6.75 6.75 0 0 1 1.995-4.79A6.793 6.793 0 0 1 7.377.65"/>
        <path d="M12.37 7.107c2.935 0 5.314 2.373 5.314 5.299 0 2.925-2.38 5.298-5.314 5.298-2.935 0-5.315-2.373-5.315-5.298 0-2.926 2.38-5.299 5.315-5.299m0-1.257c1.815 0 3.46.732 4.649 1.92a6.522 6.522 0 0 1 1.926 4.636c0 1.81-.736 3.45-1.926 4.635a6.557 6.557 0 0 1-4.65 1.92 6.557 6.557 0 0 1-4.648-1.92 6.523 6.523 0 0 1-1.926-4.635c0-1.81.736-3.451 1.926-4.636a6.557 6.557 0 0 1 4.649-1.92M19.44 7.491c.693 0 1.26-.565 1.26-1.257a1.26 1.26 0 0 0-2.521 0c0 .692.566 1.257 1.26 1.257"/>
    </g>
</svg>
