<svg xmlns="http://www.w3.org/2000/svg" width="25" height="22" viewBox="0 0 25 22">
    <path fill="#FFF" fill-rule="evenodd" d="M24.015 1.732c.225.377.337.826.28 1.304.029.031.057.06.084.094a2.075 2.075 0 0 1 .141 2.533 10.353 10.353 0 0 1-1.752 2.02 14.255 14.255 0 0 1-.233 2.069 14.76 14.76 0 0 1-.689 2.473 14.779 14.779 0 0 1-1.156 2.41c-.462.774-.983 1.49-1.558 2.144-.62.7-1.315 1.342-2.08 1.914a13.483 13.483 0 0 1-5.346 2.413 15.117 15.117 0 0 1-3.144.327 14.207 14.207 0 0 1-7.13-1.923 2.256 2.256 0 0 1-.934-1.056 2.195 2.195 0 0 1-.114-1.436v-.007c.128-.487.412-.902.795-1.197.386-.299.86-.468 1.365-.468v.006h.518v-.006c.119 0 .236-.003.352-.01a6.369 6.369 0 0 1-1.06-1.992l-.002.003a2.122 2.122 0 0 1-.1-.792 6.347 6.347 0 0 1-1.49-4.17 2.108 2.108 0 0 1 .317-1.088 6.329 6.329 0 0 1 .577-5.084 2.153 2.153 0 0 1 1.669-1.05c.417-.031.846.06 1.229.28.214.125.412.289.58.496a9.998 9.998 0 0 0 3.032 2.508c.638.34 1.314.61 2.017.805l.017-.076A6.199 6.199 0 0 1 11.71 2.38 6.213 6.213 0 0 1 14.413.685c.311-.097.637-.17.975-.223a6.567 6.567 0 0 1 1-.085c.768 0 1.53.142 2.25.415.48.18.94.421 1.367.717.096-.035.19-.073.282-.11a6.52 6.52 0 0 0 .82-.412 2.081 2.081 0 0 1 1.719-.195c.257.082.488.204.682.358v.01c.205.163.379.355.507.572M5.265 12.539c-.032.004-.063.004-.096.004-.25 0-.505-.026-.755-.073a.234.234 0 0 0-.267.302 4.499 4.499 0 0 0 3.55 3.055 8.3 8.3 0 0 1-4.635 1.404h-.518a.343.343 0 0 0-.336.258.354.354 0 0 0 .17.393 12.31 12.31 0 0 0 6.184 1.665c1.9 0 3.68-.377 5.285-1.118a11.692 11.692 0 0 0 3.867-2.895 12.719 12.719 0 0 0 2.367-3.963c.527-1.404.805-2.903.805-4.336v-.07c0-.229.104-.446.285-.59a8.876 8.876 0 0 0 1.783-1.958c.13-.195-.075-.437-.29-.343a8.502 8.502 0 0 1-1.433.484c.542-.515.95-1.16 1.18-1.88a.235.235 0 0 0-.343-.272 8.296 8.296 0 0 1-2.193.905.504.504 0 0 1-.137.018.583.583 0 0 1-.384-.147 4.478 4.478 0 0 0-2.966-1.119c-.474 0-.951.075-1.42.22a4.336 4.336 0 0 0-2.929 3.127 4.774 4.774 0 0 0-.106 1.65.166.166 0 0 1-.164.182c-.005 0-.01-.003-.016-.003a11.759 11.759 0 0 1-8.08-4.312.233.233 0 0 0-.385.028 4.48 4.48 0 0 0 .73 5.447 3.994 3.994 0 0 1-1.023-.396.235.235 0 0 0-.349.2 4.483 4.483 0 0 0 2.62 4.133"/>
</svg>
