<svg xmlns="http://www.w3.org/2000/svg" width="14" height="25" viewBox="0 0 14 25">
    <path fill="#FF3E7D" fill-rule="evenodd" d="M2.206 7.027v-.883c0-.302.01.12.006-.05-.021-1.082-.111-5.66 5.995-5.66V.427h3.096c1.044 0 1.89.846 1.89 1.886v3.526c0 .625-.306 1.182-.777 1.524.531.365.86.993.812 1.681a37.933 37.933 0 0 1-.463 3.633 1.882 1.882 0 0 1-1.857 1.565h-.824v8.184c0 1.04-.846 1.885-1.89 1.885H4.092a1.889 1.889 0 0 1-1.891-1.885v-8.184h-.145A1.89 1.89 0 0 1 0 12.362v-3.45a1.89 1.89 0 0 1 1.89-1.885h.316zm9.139 1.885H8.193S8.12 6.995 8.12 6.65c0-.346.456-.811.906-.811h2.277V2.313H8.207c-4.385 0-4.11 3.325-4.11 3.83v2.77H1.89v3.45h2.202v10.063h4.1V12.363h2.715s.31-1.675.437-3.45z"/>
</svg>
