<svg xmlns="http://www.w3.org/2000/svg" width="18" height="20" viewBox="0 0 18 20">
    <g fill="#1F3654" fill-rule="evenodd">
        <path d="M14.01.301h.05l.05.003.05.003.05.003.05.003.05.003.05.006.05.003.049.006.049.01.049.005.049.01.048.005.049.01.048.008.048.012.048.01.047.011.048.012.047.012.047.015.046.012.047.015.046.015.046.015.046.015.045.015.045.018.045.018.045.018.044.018.044.018.044.018.044.021.043.021.042.021.043.021.043.021.042.024.041.021.042.024.04.024.042.024.04.024.04.027.04.024.04.027.038.027.04.027.038.027.037.027.038.03.037.027.037.03.037.03.036.03.036.03.036.03.035.033.035.03.034.033.034.033.033.033.034.033.032.033.033.033.032.036.031.033.031.036.031.036.03.036.03.036.03.036.029.036.029.04.028.035.027.04.028.038.026.04.027.038.026.04.025.038.025.04.025.042.024.039.023.042.023.042.023.042.022.042.021.042.022.042.02.042.02.042.02.045.019.042.019.045.018.045.017.042.017.045.016.045.016.045.016.048.014.045.014.045.014.048.013.045.013.048.012.045.011.048.01.048.011.045.01.048.009.048.008.048.008.048.007.05.007.049.006.048.005.048.005.05.004.049.004.05.003.049.002.05.002.049v11.595l-.002.051-.002.048-.003.051-.004.048-.004.051-.005.048-.005.048-.006.048-.007.051-.007.048-.008.048-.008.048-.01.048-.009.048-.01.048-.01.045-.012.048-.012.048-.013.045-.013.048-.013.045-.014.045-.015.048-.015.045-.017.045-.016.045-.017.045-.017.045-.018.042-.019.045-.019.042-.02.045-.02.042-.02.042-.021.045-.022.042-.022.042-.022.042-.023.04-.024.041-.024.04-.024.041-.025.04-.026.038-.026.042-.026.04-.027.035-.027.04-.028.038-.028.036-.029.04-.029.035-.029.036-.03.036-.03.036-.031.036-.031.036-.032.036-.032.033-.032.033-.033.036-.033.033-.033.033-.035.03-.034.033-.035.033-.035.03-.035.03-.036.03-.036.03-.037.03-.037.03-.037.03-.038.027-.038.027-.038.027-.04.027-.038.027-.04.027-.04.027-.04.024-.04.024-.04.024-.042.024-.041.024-.042.024-.042.021-.042.021-.043.021-.043.021-.043.021-.043.021-.044.018-.045.021-.044.018-.044.018-.045.015-.045.018-.046.015-.045.018-.046.015-.047.015-.046.012-.047.015-.047.012-.047.012-.047.012-.048.012-.048.01-.047.011-.05.01-.047.008-.049.01-.049.005-.049.01-.049.005-.05.006-.049.006-.05.003-.05.006-.05.003-.05.003h-.05l-.05.003h-2.54l-.079-.003-.078-.009-.078-.018-.076-.024-.073-.03-.07-.036-.067-.042-.063-.048-.059-.05-.053-.06-.048-.06-.043-.07-.037-.069-.03-.072-.024-.075-.017-.075-.01-.078-.004-.08.004-.079.01-.078.017-.075.024-.075.03-.072.037-.072.043-.066.048-.06.053-.06.059-.05.063-.049.067-.042.07-.036.073-.03.076-.024.078-.018.078-.009.08-.006h2.547l.027-.003.026-.003h.027l.027-.003.026-.003.027-.003.026-.003.026-.006.026-.003.026-.006.026-.003.026-.006.026-.006.025-.006.026-.006.025-.006.025-.006.025-.006.025-.009.025-.006.025-.009.024-.006.025-.009.024-.009.024-.009.024-.009.024-.009.024-.012.024-.009.023-.009.024-.012.023-.012.023-.009.023-.012.023-.012.022-.012.023-.012.022-.012.022-.015.022-.012.022-.015.022-.012.021-.015.022-.012.02-.015.021-.015.022-.015.02-.015.02-.015.02-.015.021-.018.02-.015.02-.015.019-.018.02-.018.018-.015.02-.018.018-.018.018-.018.019-.018.018-.018.017-.018.018-.018.017-.018.017-.018.017-.02.017-.019.016-.02.017-.019.016-.02.016-.022.015-.018.015-.02.015-.022.015-.02.015-.022.014-.02.014-.022.014-.02.013-.022.013-.024.013-.02.013-.022.013-.024.012-.02.012-.025.011-.02.012-.025.01-.024.011-.02.01-.025.011-.024.01-.024.01-.024.01-.02.008-.025.009-.024.008-.024.009-.027.008-.024.007-.024.007-.024.007-.024.007-.027.006-.024.007-.024.005-.027.006-.024.005-.027.005-.024.004-.027.004-.024.004-.027.004-.027.003-.027.003-.024.002-.027.003-.027.002-.027.001-.027.001-.027.001-.024V4.121l-.002-.027-.001-.027-.002-.027-.003-.027-.002-.024-.003-.027-.003-.027-.004-.027-.004-.024-.004-.027-.004-.024-.005-.027-.005-.024-.006-.027-.005-.024-.007-.027-.006-.024-.007-.024L16 3.632l-.007-.027-.008-.024-.008-.024-.008-.024-.008-.024-.01-.024-.008-.024-.01-.024-.01-.024-.009-.024-.01-.024-.01-.021-.011-.024-.012-.024-.01-.021-.013-.024-.012-.021-.012-.024-.012-.021-.013-.024-.013-.021-.013-.021-.014-.021-.013-.024-.014-.021-.015-.021-.014-.021-.015-.021-.015-.021-.015-.018-.016-.021-.015-.021-.016-.018-.017-.021-.016-.021-.017-.018-.017-.018-.017-.021-.017-.018-.018-.018-.018-.018-.018-.018-.018-.018-.019-.018-.018-.018-.019-.015-.02-.018-.019-.018-.019-.015-.02-.018-.02-.015-.02-.015-.02-.018-.02-.015-.02-.015-.022-.015-.02-.012-.022-.015-.021-.015-.022-.015-.022-.012-.021-.015-.022-.012-.022-.012-.023-.012-.022-.015-.023-.012-.023-.01-.022-.011-.024-.012-.023-.012-.023-.01-.024-.011-.024-.01-.023-.008-.024-.012-.025-.01-.024-.008-.024-.01-.024-.005-.025-.01-.024-.008-.025-.006-.025-.01-.025-.005-.026-.006-.025-.006-.025-.007-.026-.006-.026-.006-.025-.006-.026-.003-.026-.006-.026-.003-.026-.003-.026-.006-.027-.003-.026-.003h-.027l-.027-.003-.027-.003h-.027l-.027-.003h-2.52l-.079-.003-.078-.012-.078-.015-.076-.024-.073-.03-.07-.036-.067-.042-.063-.048-.059-.054-.053-.057-.048-.063-.043-.066-.037-.069-.03-.075-.024-.075-.017-.075-.01-.078-.004-.078.004-.078.01-.078.017-.078.024-.075.03-.072.037-.069.043-.066.048-.063.053-.057.059-.054.063-.048.067-.042.07-.036.073-.03.076-.024.078-.018.078-.009.08-.003h2.44z"/>
        <path d="M12.493 9.305l.063.006.063.012.061.015.06.018.06.024.056.027.055.033.053.033.05.039.047.042.044.045.041.048.037.05.034.055.03.057.026.057.021.057.018.06.013.063.01.063.003.063v.063l-.004.06-.009.063-.013.063-.018.06-.021.057-.026.06-.03.054-.034.054-.037.05-.04.049-.045.045-.047.042-.05.039-.053.033-.055.033-.057.027-.059.024-.06.018-.061.015-.063.012-.063.006-.064.003H.91l-.063-.003-.064-.006-.062-.012-.062-.015-.06-.018-.059-.024-.057-.027-.055-.033-.053-.033-.05-.04-.047-.041-.044-.045-.04-.048-.038-.051-.034-.054-.03-.054-.026-.06-.021-.057-.018-.06-.013-.063-.009-.063-.004-.06v-.063l.004-.063.01-.063.012-.063.018-.06.021-.057.027-.057.03-.057.033-.054.037-.051.041-.048.044-.045.047-.042.05-.04.053-.032.055-.033.057-.027.059-.024.06-.018.062-.015.062-.012.064-.006.063-.003h11.52z"/>
        <path d="M.964 9.005l.044.003.044.006.043.009.043.009.042.012.041.012.041.018.04.018.04.018.038.024.037.02.036.028.034.027.034.027.032.03 5.359 5.304.03.03.03.033.026.036.026.036.023.036.022.036.02.039.018.042.016.039.014.042.012.042.01.042.008.042.006.045.004.042.001.042v.045l-.003.042-.005.045-.007.042-.008.042-.012.042-.013.042-.015.042-.017.04-.019.038-.02.04-.023.035-.025.036-.026.036-.028.033-.03.033-.03.03-.033.03-.034.027-.035.027-.037.024-.038.021-.038.021-.04.021-.04.015-.042.015-.042.015-.042.01-.043.008-.044.006-.043.006-.044.003h-.088L6.17 16.1l-.044-.006-.043-.006-.042-.012-.043-.012-.041-.012-.041-.015-.04-.018-.04-.02-.038-.022-.037-.024-.036-.024-.034-.027-.034-.03-.031-.03-5.36-5.304-.03-.03-.029-.033-.027-.033-.025-.036-.024-.04-.022-.035-.02-.04-.018-.038-.016-.042-.014-.04-.012-.041-.01-.045-.008-.042L.005 10l-.003-.045L0 9.914v-.045l.003-.042.005-.042.007-.045.009-.042.01-.042.014-.042.015-.042.017-.04.02-.038.02-.04.023-.035.024-.036.026-.036.028-.033.03-.033.03-.03.034-.03.033-.027.036-.027.036-.024.038-.021.039-.021.039-.018.04-.018.042-.015.042-.012.042-.012.043-.01.044-.005.044-.006.043-.003H.92z"/>
        <path d="M6.302 3.902l.044.003.043.003.044.009.043.009.042.009.042.012.042.015.04.018.04.018.038.02.038.025.037.024.035.027.034.027.032.027.031.033.03.03.028.036.026.033.025.036.022.039.021.036.02.042.016.039.015.042.014.039.01.042.01.045.006.042.005.042.003.045v.042l-.001.045-.004.042-.006.045-.008.042-.01.042-.012.042-.014.042-.016.039-.018.039-.02.039-.022.039-.023.036-.026.036-.027.033-.029.033-.03.033-5.36 5.3-.031.034-.034.027-.034.027-.036.024-.037.024-.038.02-.04.022-.04.018-.04.015-.042.015-.042.012-.043.009-.043.009-.044.006-.044.003H.876L.833 11l-.044-.003-.044-.01-.043-.008-.042-.01-.042-.011-.041-.015-.041-.018-.04-.018-.038-.021-.038-.024-.036-.024-.036-.024-.034-.03-.032-.027-.031-.033-.03-.03-.028-.036-.026-.033-.025-.036-.022-.04-.02-.035-.02-.042-.017-.04-.015-.041-.013-.04-.011-.041-.01-.045-.006-.042-.005-.042-.002-.045L0 10.094l.002-.045.003-.042.006-.045.008-.042.01-.042.012-.042.014-.042.016-.04.018-.038.02-.04.022-.038.024-.036.025-.036.027-.033.029-.033.03-.033 5.36-5.301.031-.03.034-.03.034-.027.036-.024.037-.024.039-.021.039-.021.04-.018.04-.015.042-.015.043-.012.042-.01.043-.008.044-.006.044-.003h.044z"/>
    </g>
</svg>
