<svg xmlns="http://www.w3.org/2000/svg" width="156" height="164" viewBox="0 0 156 164">
    <g fill="#FFF" fill-rule="evenodd">
        <path d="M78.001 12.615c16.3 0 29.514 13.1 29.514 29.247C107.515 58.01 94.3 79.897 78 79.897c-16.3 0-29.513-21.887-29.513-38.035C48.488 25.714 61.7 12.615 78 12.615m0-12.615c11.593 0 22.119 4.689 29.763 12.258 7.66 7.59 12.4 18.061 12.4 29.604 0 11.207-4.773 24.39-12.37 34.188C100.32 85.68 89.947 92.513 78 92.513c-11.946 0-22.316-6.834-29.79-16.463-7.6-9.798-12.372-22.981-12.372-34.188 0-11.543 4.74-22.014 12.4-29.604C55.883 4.688 66.41 0 78.001 0M154.68 153.824c2.135 2.775 1.627 6.728-1.137 8.851-2.761 2.145-6.733 1.62-8.87-1.114l10.007-7.737zm0 0l-10.008 7.737-4.355-5.446-4.34-5.088-4.322-4.71-4.3-4.33-4.28-3.975-4.252-3.595-4.227-3.238-4.193-2.88-4.16-2.503-4.125-2.165-4.09-1.83-4.056-1.471-4.024-1.136-4-.799-3.977-.483-3.972-.168-3.97.168-3.98.483-3.996.8-4.025 1.135-4.056 1.472-4.087 1.808-4.126 2.165-4.16 2.523-4.192 2.86-4.225 3.238-4.254 3.616-4.277 3.953-4.303 4.352-4.322 4.71-4.34 5.067-4.356 5.446-10.011-7.695 4.606-5.761 4.619-5.404 4.638-5.067 4.657-4.689 4.682-4.352 4.705-3.974 4.737-3.637 4.766-3.26 4.798-2.901 4.836-2.544 4.87-2.166 4.904-1.766 4.937-1.388 4.96-1.009 4.98-.589 4.99-.21 4.99.21 4.979.59 4.96 1.008 4.935 1.388 4.904 1.787 4.871 2.166 4.832 2.523 4.8 2.923 4.767 3.259 4.735 3.637 4.705 3.974 4.68 4.352 4.659 4.689 4.636 5.046 4.62 5.404 4.603 5.74zM11.33 161.54c-2.135 2.754-6.107 3.28-8.873 1.135a6.278 6.278 0 0 1-1.138-8.83l10.011 7.695z"/>
    </g>
</svg>
