<svg xmlns="http://www.w3.org/2000/svg" width="60" height="58" viewBox="0 0 60 58">
    <g fill="#C2CDD1" fill-rule="evenodd">
        <path d="M0 28.899C0 21.685 13.432 6 30 6c16.568 0 30 15.685 30 22.899 0 7.212-13.432 22.897-30 22.897-16.568 0-30-15.685-30-22.897zm30 15.665c8.616 0 15.6-7.014 15.6-15.667 0-8.652-6.984-15.666-15.6-15.666s-15.6 7.014-15.6 15.666c0 8.653 6.984 15.667 15.6 15.667z"/>
        <ellipse cx="30" cy="28.897" rx="7.2" ry="7.231"/>
        <rect width="4" height="76" x="28" y="-9" rx="2" transform="rotate(45 30 29)"/>
    </g>
</svg>
