<svg xmlns="http://www.w3.org/2000/svg" width="753" height="235" viewBox="0 0 753 235">
    <g fill="#FF3E7D" fill-rule="evenodd">
        <path d="M157.652 233.729l-8.488-24.444h-.16c.227 3.63.34 7.034.34 10.21v14.234H145V204.46h6.747l8.128 23.283h.12l8.368-23.283h6.766v29.269h-4.604v-14.474c0-1.455.037-3.35.11-5.686.073-2.335.137-3.75.19-4.244h-.16l-8.789 24.404h-4.224zm45.343 0l-2.923-8.128H188.88l-2.863 8.128h-5.045l10.95-29.389h5.206l10.95 29.389h-5.084zm-4.184-12.252l-2.743-7.968c-.2-.534-.477-1.374-.83-2.522a54.544 54.544 0 0 1-.732-2.523c-.36 1.642-.887 3.437-1.581 5.386l-2.643 7.627h8.529zm37.474 12.252h-5.545l-9.19-13.253-2.822 2.302v10.951h-4.785V204.46h4.785v13.974a181.437 181.437 0 0 1 3.904-4.624l7.908-9.35h5.445c-5.112 6.006-8.775 10.284-10.99 12.833l11.29 16.436zm22.42 0H242.15V204.46h16.556v4.044h-11.771v7.968h11.03v4.004h-11.03v9.189h11.771v4.064zm31.269-29.269V223.4c0 2.162-.464 4.054-1.392 5.675-.927 1.622-2.269 2.87-4.024 3.744-1.755.874-3.853 1.311-6.296 1.311-3.63 0-6.453-.96-8.468-2.882-2.015-1.922-3.023-4.565-3.023-7.928V204.46h4.805v18.519c0 2.415.56 4.197 1.681 5.345 1.121 1.148 2.843 1.721 5.165 1.721 4.511 0 6.767-2.369 6.767-7.107V204.46h4.785zm28.866 8.85c0 3.055-1.001 5.398-3.003 7.026-2.002 1.628-4.851 2.442-8.548 2.442h-3.043v10.951h-4.785V204.46h8.428c3.657 0 6.396.748 8.218 2.243 1.822 1.494 2.733 3.697 2.733 6.606zm-14.594 5.444h2.542c2.456 0 4.258-.427 5.405-1.28 1.148-.855 1.722-2.19 1.722-4.005 0-1.681-.514-2.936-1.541-3.763-1.028-.828-2.63-1.242-4.805-1.242h-3.323v10.29zm47.542-10.61c-2.75 0-4.911.974-6.486 2.923-1.575 1.948-2.363 4.638-2.363 8.068 0 3.59.758 6.306 2.273 8.148 1.514 1.842 3.707 2.762 6.576 2.762a17.28 17.28 0 0 0 3.604-.37 41.826 41.826 0 0 0 3.623-.95v4.103c-2.295.868-4.898 1.301-7.807 1.301-4.285 0-7.575-1.298-9.87-3.893-2.296-2.596-3.443-6.31-3.443-11.141 0-3.043.557-5.706 1.671-7.988 1.115-2.282 2.726-4.03 4.835-5.245 2.109-1.215 4.584-1.822 7.427-1.822 2.99 0 5.752.627 8.288 1.882l-1.721 3.984a25.705 25.705 0 0 0-3.134-1.231 11.288 11.288 0 0 0-3.473-.531zm40.698 10.91c0 4.765-1.191 8.469-3.574 11.112-2.382 2.642-5.755 3.963-10.12 3.963-4.417 0-7.81-1.31-10.18-3.933-2.368-2.623-3.553-6.35-3.553-11.181 0-4.832 1.191-8.542 3.574-11.131 2.382-2.59 5.782-3.884 10.2-3.884 4.35 0 7.714 1.315 10.09 3.944 2.375 2.63 3.563 6.333 3.563 11.11zm-22.342 0c0 3.604.727 6.337 2.182 8.199s3.61 2.792 6.466 2.792c2.843 0 4.989-.92 6.437-2.762 1.448-1.842 2.172-4.585 2.172-8.228 0-3.59-.717-6.313-2.152-8.168-1.435-1.855-3.574-2.783-6.416-2.783-2.87 0-5.035.928-6.497 2.783-1.461 1.855-2.192 4.577-2.192 8.168zm43.28 14.675l-8.488-24.444h-.16c.227 3.63.34 7.034.34 10.21v14.234h-4.344V204.46h6.747l8.127 23.283h.12l8.369-23.283h6.766v29.269h-4.604v-14.474c0-1.455.037-3.35.11-5.686.073-2.335.137-3.75.19-4.244h-.16l-8.789 24.404h-4.224zm39.837 0l-8.488-24.444h-.16c.227 3.63.34 7.034.34 10.21v14.234h-4.344V204.46h6.746l8.128 23.283h.12l8.369-23.283h6.766v29.269h-4.604v-14.474c0-1.455.036-3.35.11-5.686.073-2.335.137-3.75.19-4.244h-.16l-8.789 24.404h-4.224zm50.127-29.269V223.4c0 2.162-.464 4.054-1.391 5.675-.928 1.622-2.269 2.87-4.024 3.744-1.755.874-3.854 1.311-6.296 1.311-3.63 0-6.453-.96-8.469-2.882-2.015-1.922-3.022-4.565-3.022-7.928V204.46h4.804v18.519c0 2.415.56 4.197 1.682 5.345 1.121 1.148 2.843 1.721 5.165 1.721 4.511 0 6.767-2.369 6.767-7.107V204.46h4.784zm33.871 29.269h-5.865L517 210.406h-.16l.1 1.302c.186 2.482.28 4.75.28 6.806v15.215h-4.345V204.46h5.806l14.354 23.203h.12c-.026-.307-.08-1.425-.16-3.353a115.87 115.87 0 0 1-.12-4.515V204.46h4.384v29.269zm9.728 0V204.46h4.784v29.269h-4.784zm24.622 0h-4.785v-25.165h-8.608v-4.104h22.001v4.104h-8.608v25.165zm23.36-15.916l6.927-13.353h5.206l-9.75 17.918v11.351h-4.805v-11.19l-9.71-18.079h5.206l6.927 13.353zM56.925 0c-1.012 2.193-2.15 4.68-3.415 7.463-1.266 2.784-2.067 4.512-2.404 5.187-.675 1.18-1.687 2.32-3.036 3.415-1.35 1.097-3.458 1.645-6.325 1.645H22.011c-1.18 0-2.193.38-3.036 1.139s-1.265 1.728-1.265 2.909V75.9l31.625-.253a390.439 390.439 0 0 1-3.416 7.716c-1.265 2.784-2.066 4.597-2.403 5.44-.675 1.18-1.729 2.277-3.163 3.289-1.433 1.012-3.584 1.518-6.451 1.518H22.011c-1.18 0-2.193.38-3.036 1.139s-1.265 1.728-1.265 2.909v70.081c0 1.518-.506 2.783-1.518 3.795s-2.277 1.518-3.795 1.518H0V5.06c0-1.35.548-2.53 1.645-3.542C2.74.506 3.963 0 5.313 0h51.612zm93.566 173.052H131.01L115.577 53.636 99.891 173.052H80.41L106.722 0h9.361c3.88 0 6.367.97 7.463 2.91 1.097 1.94 1.814 4.09 2.151 6.451l24.794 163.691zM239.25 26.565c0-3.373-.928-5.692-2.783-6.957-1.855-1.266-4.048-1.898-6.578-1.898h-9.361v60.72h9.361c2.53 0 4.723-.717 6.578-2.15 1.855-1.434 2.783-4.09 2.783-7.97V26.565zm0 78.177c0-3.88-.928-6.536-2.783-7.97-1.855-1.433-4.048-2.15-6.578-2.15h-9.361v60.72h9.361c2.53 0 4.723-.632 6.578-1.898 1.855-1.265 2.783-3.584 2.783-6.957v-41.745zm7.843-18.216a15.573 15.573 0 0 1 5.06 3.036c1.35 1.18 2.53 2.656 3.542 4.428 1.012 1.77 1.518 4.005 1.518 6.704v50.6c0 6.072-2.15 11.216-6.451 15.433-4.302 4.217-9.488 6.325-15.56 6.325h-32.384V0h32.384c3.036 0 5.903.548 8.602 1.645 2.699 1.096 5.018 2.614 6.958 4.554 1.94 1.94 3.5 4.216 4.68 6.83 1.18 2.615 1.771 5.44 1.771 8.476v50.853c0 2.867-.506 5.144-1.518 6.831-1.012 1.687-2.193 3.12-3.542 4.301a15.573 15.573 0 0 1-5.06 3.036zM375.067 0v152.559c-.169 5.903-2.277 10.921-6.325 15.054-4.048 4.132-9.024 6.367-14.927 6.704h-13.662c-3.036 0-5.903-.59-8.602-1.771-2.699-1.18-5.018-2.74-6.957-4.68-1.94-1.94-3.5-4.217-4.681-6.832-1.18-2.614-1.771-5.439-1.771-8.475V4.807c0-1.35.548-2.488 1.645-3.416C320.883.464 322.106 0 323.455 0h12.397v149.27c0 2.53.885 4.723 2.657 6.578 1.77 1.855 3.921 2.783 6.451 2.783h2.783c2.699 0 4.976-.885 6.831-2.656 1.855-1.772 2.783-4.006 2.783-6.705V0h17.71zm119.878 155.342c-.843 2.361-1.897 4.891-3.162 7.59-1.266 2.699-2.067 4.47-2.404 5.313-.675 1.18-1.729 2.277-3.162 3.289-1.434 1.012-3.585 1.518-6.452 1.518h-42.504V0h12.397c1.518 0 2.783.506 3.795 1.518s1.518 2.277 1.518 3.795v150.029h39.974zM539.429 0c2.699 0 4.554.801 5.566 2.404 1.012 1.602 1.518 3.078 1.518 4.427v166.221h-12.65c-2.024 0-3.331-.422-3.921-1.265-.59-.843-.97-1.687-1.139-2.53V0h10.626zm131.01 0l-26.565 173.052h-8.855c-2.193 0-3.964-.548-5.313-1.644-1.35-1.097-2.403-2.362-3.162-3.795-.76-1.434-1.265-2.826-1.518-4.175-.253-1.35-.38-2.193-.38-2.53L599.599 0h13.662c.675 0 1.602.38 2.783 1.139 1.18.759 2.024 2.572 2.53 5.439l16.445 108.537L652.729 0h17.71zm43.472 155.342h37.191c1.18 0 1.602.632 1.265 1.897-.337 1.266-.97 2.7-1.897 4.302a34.089 34.089 0 0 1-3.036 4.427c-1.097 1.35-1.814 2.108-2.151 2.277-.506 1.18-1.476 2.277-2.91 3.289-1.433 1.012-3.584 1.518-6.451 1.518h-39.721V5.06c0-1.518.548-2.74 1.645-3.668C698.942.463 700.165 0 701.514 0h46.299c1.18 0 1.602.632 1.265 1.897-.337 1.266-.97 2.657-1.897 4.175a39.346 39.346 0 0 1-3.036 4.301c-1.097 1.35-1.814 2.108-2.151 2.277-.506 1.18-1.476 2.32-2.91 3.415-1.433 1.097-3.584 1.645-6.451 1.645h-14.421c-1.18 0-2.193.38-3.036 1.139s-1.265 1.728-1.265 2.909V73.37h26.818c1.18 0 1.645.632 1.392 1.897-.253 1.266-.844 2.7-1.771 4.302a28.025 28.025 0 0 1-3.163 4.427c-1.18 1.35-1.94 2.108-2.277 2.277-.506 1.35-1.476 2.53-2.91 3.542-1.433 1.012-3.584 1.518-6.451 1.518l-7.337-.253c-1.18 0-2.193.422-3.036 1.265s-1.265 1.855-1.265 3.036v59.961z"/>
    </g>
</svg>
