<svg xmlns="http://www.w3.org/2000/svg" width="68" height="68" viewBox="0 0 68 68">
    <g fill="#0090D5" fill-rule="evenodd">
        <path fill-rule="nonzero" d="M68 11.334C68 5.38 62.623 0 56.667 0H11.333C5.377 0 0 5.379 0 11.334v45.332C0 62.62 5.377 68 11.334 68H34V42.311h-8.311V30.978H34v-4.416c0-7.615 5.718-14.473 12.75-14.473h9.161v11.333H46.75c-1.003 0-2.172 1.217-2.172 3.04v4.516H55.91V42.31H44.578V68h12.089C62.623 68 68 62.621 68 56.666V11.334z"/>
        <rect width="19" height="20" y="48" rx="8"/>
        <rect width="19" height="20" rx="8"/>
        <rect width="19" height="20" x="49" y="48" rx="8"/>
        <path d="M49 7.998A7.995 7.995 0 0 1 57.003 0h2.994C64.417 0 68 3.576 68 7.99v4.02c0 4.412-3.578 7.99-8.001 7.99h-1.118l-.092-2.553c-.16-4.414-3.88-7.992-8.284-7.992H49V7.998z"/>
    </g>
</svg>
