<svg xmlns="http://www.w3.org/2000/svg" width="48" height="48" viewBox="0 0 48 48">
    <path fill="#C2CDD1" fill-rule="evenodd" d="M24.307 20.966l-8.341-8.34a2.151 2.151 0 0 0-3.033 0 2.151 2.151 0 0 0 0 3.033l8.34 8.34-8.34 8.341a2.152 2.152 0 0 0 0 3.034 2.151 2.151 0 0 0 3.033 0l8.341-8.341 8.341 8.341a2.151 2.151 0 0 0 3.033 0c.834-.835.834-2.2 0-3.034L27.341 24l8.34-8.341a2.15 2.15 0 0 0 0-3.034 2.151 2.151 0 0 0-3.033 0l-8.341 8.341zM24 48C10.745 48 0 37.255 0 24S10.745 0 24 0s24 10.745 24 24-10.745 24-24 24z"/>
</svg>
