<?xml version="1.0" encoding="UTF-8"?>
<svg width="195px" height="30px" viewBox="0 0 195 30" version="1.1" xmlns="http://www.w3.org/2000/svg" xmlns:xlink="http://www.w3.org/1999/xlink">
    <!-- Generator: Sketch 43.1 (39012) - http://www.bohemiancoding.com/sketch -->
    <title>Logo White</title>
    <desc>Created with Sketch.</desc>
    <defs></defs>
    <g id="Fabulive" stroke="none" stroke-width="1" fill="none" fill-rule="evenodd">
        <g id="FabuliveWeb---Home-screen" transform="translate(-32.000000, -108.000000)" fill="#FFFFFF">
            <g id="Header">
                <g id="Top-Bar">
                    <g id="Pink">
                        <g id="Sign-In-White">
                            <g id="Logo-White" transform="translate(32.000000, 107.000000)">
                                <path d="M0.88,29.24 C0.88,29.64 1.2,30 1.64,30 L4.24,30 C4.64,30 5,29.64 5,29.24 L5,18.72 L15.68,18.72 C16.08,18.72 16.44,18.36 16.44,17.96 L16.44,15.76 C16.44,15.36 16.08,15 15.68,15 L5,15 L5,5.76 L17.64,5.76 C18.08,5.76 18.4,5.4 18.4,5 L18.4,2.76 C18.4,2.36 18.08,2 17.64,2 L1.64,2 C1.2,2 0.88,2.36 0.88,2.76 L0.88,29.24 Z M21.52,30 C20.92,30 20.6,29.48 20.84,28.96 L33.12,2.04 C33.24,1.8 33.6,1.6 33.8,1.6 L34.2,1.6 C34.4,1.6 34.76,1.8 34.88,2.04 L47.08,28.96 C47.32,29.48 47,30 46.4,30 L43.88,30 C43.4,30 43.12,29.76 42.96,29.4 L40.48,23.92 L27.4,23.92 C26.6,25.76 25.76,27.56 24.96,29.4 C24.84,29.68 24.52,30 24.04,30 L21.52,30 Z M28.96,20.48 L38.96,20.48 L34.04,9.52 L33.84,9.52 L28.96,20.48 Z M53.08,29.24 L53.08,2.76 C53.08,2.36 53.4,2 53.84,2 L62.8,2 C67.64,2 71.12,5.2 71.12,9.4 C71.12,12.48 68.84,14.68 66.96,15.76 C69.08,16.64 71.96,18.6 71.96,22.28 C71.96,26.76 68.28,30 63.24,30 L53.84,30 C53.4,30 53.08,29.64 53.08,29.24 Z M57.16,14.16 L62.56,14.16 C65.12,14.16 66.68,12.28 66.68,9.88 C66.68,7.44 65.12,5.76 62.56,5.76 L57.16,5.76 L57.16,14.16 Z M57.12,26.32 L63.2,26.32 C65.64,26.32 67.52,24.44 67.52,21.96 C67.52,19.52 65.2,17.76 62.6,17.76 L57.12,17.76 L57.12,26.32 Z M79.6,19.56 C79.6,25.64 84.16,30.4 90.44,30.4 C96.76,30.4 101.36,25.64 101.36,19.56 L101.36,2.76 C101.36,2.36 101,2 100.6,2 L97.92,2 C97.48,2 97.16,2.36 97.16,2.76 L97.16,19.36 C97.16,23.32 94.56,26.4 90.44,26.4 C86.36,26.4 83.8,23.28 83.8,19.28 L83.8,2.76 C83.8,2.36 83.48,2 83.04,2 L80.36,2 C79.96,2 79.6,2.36 79.6,2.76 L79.6,19.56 Z M110.76,29.24 C110.76,29.64 111.08,30 111.52,30 L125.76,30 C126.2,30 126.52,29.64 126.52,29.24 L126.52,27.04 C126.52,26.64 126.2,26.28 125.76,26.28 L114.92,26.28 L114.92,2.76 C114.92,2.36 114.56,2 114.16,2 L111.52,2 C111.08,2 110.76,2.36 110.76,2.76 L110.76,29.24 Z M134.72,29.24 C134.72,29.64 135.08,30 135.48,30 L138.12,30 C138.52,30 138.88,29.64 138.88,29.24 L138.88,2.76 C138.88,2.36 138.52,2 138.12,2 L135.48,2 C135.08,2 134.72,2.36 134.72,2.76 L134.72,29.24 Z M157.12,29.96 C157.24,30.2 157.52,30.4 157.8,30.4 L158.2,30.4 C158.52,30.4 158.76,30.2 158.88,29.96 L171.16,3.04 C171.4,2.52 171.08,2 170.48,2 L167.64,2 C167.28,2 167.04,2.24 166.96,2.44 L158.16,22.24 L157.92,22.24 L149.12,2.44 C149.04,2.24 148.76,2 148.44,2 L145.6,2 C145,2 144.68,2.52 144.92,3.04 L157.12,29.96 Z M177.2,29.24 C177.2,29.64 177.52,30 177.96,30 L193.96,30 C194.4,30 194.72,29.64 194.72,29.24 L194.72,27.04 C194.72,26.64 194.4,26.28 193.96,26.28 L181.32,26.28 L181.32,17.68 L192,17.68 C192.4,17.68 192.76,17.36 192.76,16.92 L192.76,14.68 C192.76,14.28 192.4,13.92 192,13.92 L181.32,13.92 L181.32,5.76 L193.96,5.76 C194.4,5.76 194.72,5.4 194.72,5 L194.72,2.76 C194.72,2.36 194.4,2 193.96,2 L177.96,2 C177.52,2 177.2,2.36 177.2,2.76 L177.2,29.24 Z" id="FABULIVE"></path>
                            </g>
                        </g>
                    </g>
                </g>
            </g>
        </g>
    </g>
</svg>