<?xml version="1.0" encoding="UTF-8"?>
<svg width="146px" height="32px" viewBox="0 0 146 32" version="1.1" xmlns="http://www.w3.org/2000/svg" xmlns:xlink="http://www.w3.org/1999/xlink">
    <!-- Generator: Sketch 43.1 (39012) - http://www.bohemiancoding.com/sketch -->
    <title>icoFABULIVE</title>
    <desc>Created with Sketch.</desc>
    <defs></defs>
    <g id="Fabulive" stroke="none" stroke-width="1" fill="none" fill-rule="evenodd">
        <g id="Sign-Up" transform="translate(-32.000000, -32.000000)" fill="#FF3E7D">
            <g id="Header">
                <g id="Sign-In-">
                    <path d="M43.0377358,32 C42.8415085,32.4025177 42.6207559,32.8592137 42.3754717,33.3701016 C42.1301875,33.8809895 41.9748431,34.1983545 41.909434,34.3222061 C41.7786157,34.5389464 41.5823912,34.7479429 41.3207547,34.9492017 C41.0591182,35.1504606 40.6503172,35.2510885 40.0943396,35.2510885 L36.2679245,35.2510885 C36.0389926,35.2510885 35.8427681,35.320754 35.6792453,35.4600871 C35.5157225,35.5994201 35.4339623,35.7774542 35.4339623,35.9941945 L35.4339623,45.9332366 L41.5660377,45.8867925 C41.3698103,46.3202731 41.1490578,46.7924503 40.9037736,47.3033382 C40.6584893,47.8142261 40.503145,48.1470723 40.4377358,48.3018868 C40.3069176,48.5186271 40.1025171,48.719883 39.8245283,48.9056604 C39.5465395,49.0914378 39.1295625,49.1843251 38.5735849,49.1843251 L36.2679245,49.1843251 C36.0389926,49.1843251 35.8427681,49.2539906 35.6792453,49.3933237 C35.5157225,49.5326567 35.4339623,49.7106907 35.4339623,49.9274311 L35.4339623,62.7924528 C35.4339623,63.071119 35.33585,63.3033372 35.1396226,63.4891147 C34.9433952,63.6748921 34.6981147,63.7677794 34.4037736,63.7677794 L32,63.7677794 L32,32.9288824 C32,32.6811792 32.1062882,32.4644421 32.3188679,32.2786647 C32.5314476,32.0928873 32.7685522,32 33.0301887,32 L43.0377358,32 Z M61.1801477,63.7677794 L57.4027892,63.7677794 L54.4103364,41.8461538 L51.368827,63.7677794 L47.5914685,63.7677794 L52.6933553,32 L54.5084496,32 C55.2606546,32 55.7430398,32.178034 55.9556194,32.5341074 C56.1681991,32.8901808 56.3071914,33.2849519 56.3726006,33.7184325 L61.1801477,63.7677794 Z M78.3904842,36.8766328 C78.3904842,36.2573747 78.2106117,35.8316412 77.8508615,35.5994194 C77.4911113,35.3671977 77.0659583,35.2510885 76.5753898,35.2510885 L74.7602955,35.2510885 L74.7602955,46.3976778 L76.5753898,46.3976778 C77.0659583,46.3976778 77.4911113,46.2660874 77.8508615,46.0029028 C78.2106117,45.7397181 78.3904842,45.2520597 78.3904842,44.5399129 L78.3904842,36.8766328 Z M78.3904842,51.2278665 C78.3904842,50.5157197 78.2106117,50.0280613 77.8508615,49.7648766 C77.4911113,49.501692 77.0659583,49.3701016 76.5753898,49.3701016 L74.7602955,49.3701016 L74.7602955,60.5166909 L76.5753898,60.5166909 C77.0659583,60.5166909 77.4911113,60.4005817 77.8508615,60.1683599 C78.2106117,59.9361382 78.3904842,59.5104046 78.3904842,58.8911466 L78.3904842,51.2278665 Z M79.9112389,47.8838897 C80.2709891,48.0077413 80.5980298,48.1935159 80.8923709,48.4412192 C81.1540075,48.6579595 81.382936,48.9288808 81.5791634,49.2539913 C81.7753908,49.5791018 81.873503,49.9893541 81.873503,50.4847605 L81.873503,59.7735849 C81.873503,60.8882494 81.4565261,61.8326038 80.6225596,62.6066763 C79.7885932,63.3807489 78.7829429,63.7677794 77.6055785,63.7677794 L71.3263332,63.7677794 L71.3263332,32 L77.6055785,32 C78.1942607,32 78.75023,32.1006279 79.273503,32.3018868 C79.7967761,32.5031457 80.2464571,32.7818076 80.6225596,33.137881 C80.9986621,33.4939544 81.3011748,33.9119473 81.5301068,34.3918723 C81.7590388,34.8717973 81.873503,35.3904181 81.873503,35.9477504 L81.873503,45.2830189 C81.873503,45.8093882 81.7753908,46.2273811 81.5791634,46.5370102 C81.382936,46.8466392 81.1540075,47.1098199 80.8923709,47.3265602 C80.5980298,47.5742635 80.2709891,47.7600381 79.9112389,47.8838897 Z M104.725349,32 L104.725349,60.0058055 C104.692644,61.0895071 104.283843,62.0106397 103.498934,62.7692308 C102.714024,63.5278219 101.749254,63.9380742 100.604594,64 L97.9555375,64 C97.3668554,64 96.8108861,63.8916315 96.287613,63.6748911 C95.76434,63.4581508 95.3146589,63.1717483 94.9385564,62.8156749 C94.5624539,62.4596015 94.2599412,62.0416086 94.0310092,61.5616836 C93.8020773,61.0817586 93.687613,60.5631378 93.687613,60.0058055 L93.687613,32.8824383 C93.687613,32.6347351 93.7939013,32.4257386 94.0064809,32.2554427 C94.2190606,32.0851467 94.4561652,32 94.7178017,32 L97.1215753,32 L97.1215753,59.4020319 C97.1215753,59.8664755 97.2932717,60.2689872 97.6366696,60.6095791 C97.9800676,60.950171 98.3970445,61.1204644 98.887613,61.1204644 L99.4272357,61.1204644 C99.9505087,61.1204644 100.392014,60.9579116 100.751764,60.6328012 C101.111514,60.3076907 101.291387,59.8974384 101.291387,59.4020319 L101.291387,32 L104.725349,32 Z M127.969648,60.5166909 C127.806125,60.9501715 127.601724,61.4146081 127.35644,61.9100145 C127.111156,62.405421 126.955811,62.7305266 126.890402,62.8853411 C126.759584,63.1020814 126.555184,63.3033372 126.277195,63.4891147 C125.999206,63.6748921 125.582229,63.7677794 125.026251,63.7677794 L116.784742,63.7677794 L116.784742,32 L119.188515,32 C119.482857,32 119.728137,32.0928873 119.924365,32.2786647 C120.120592,32.4644421 120.218704,32.6966604 120.218704,32.9753266 L120.218704,60.5166909 L127.969648,60.5166909 Z M136.595078,32 C137.118351,32 137.478096,32.1470716 137.674324,32.4412192 C137.870551,32.7353667 137.968663,33.0062881 137.968663,33.2539913 L137.968663,63.7677794 L135.515833,63.7677794 C135.123378,63.7677794 134.869922,63.6903733 134.755456,63.5355588 C134.64099,63.3807443 134.567406,63.2259321 134.534701,63.0711176 L134.534701,32 L136.595078,32 Z M161.997868,32 L156.846924,63.7677794 L155.129943,63.7677794 C154.704784,63.7677794 154.361391,63.6671515 154.099754,63.4658926 C153.838118,63.2646337 153.633717,63.0324154 153.486547,62.7692308 C153.339376,62.5060461 153.241264,62.250606 153.192207,62.0029028 C153.14315,61.7551995 153.118622,61.6003873 153.118622,61.5384615 L148.262018,32 L150.911075,32 C151.041893,32 151.221766,32.0696655 151.450698,32.2089985 C151.67963,32.3483316 151.84315,32.6811778 151.941264,33.2075472 L155.129943,53.1320755 L158.563905,32 L161.997868,32 Z M170.427072,60.5166909 L177.638393,60.5166909 C177.867325,60.5166909 177.949085,60.6328 177.883676,60.8650218 C177.818267,61.0972435 177.695626,61.3604243 177.515751,61.6545718 C177.335876,61.9487194 177.139652,62.2196408 176.927072,62.467344 C176.714492,62.7150472 176.5755,62.8543782 176.510091,62.8853411 C176.411977,63.1020814 176.223929,63.3033372 175.94594,63.4891147 C175.667951,63.6748921 175.250974,63.7677794 174.694996,63.7677794 L166.99311,63.7677794 L166.99311,32.9288824 C166.99311,32.6502163 167.099398,32.4257386 167.311978,32.2554427 C167.524557,32.0851467 167.761662,32 168.023298,32 L177.000657,32 C177.229589,32 177.311349,32.1161091 177.24594,32.3483309 C177.180531,32.5805527 177.05789,32.8359928 176.878015,33.1146589 C176.69814,33.3933251 176.501916,33.6565058 176.289336,33.904209 C176.076756,34.1519122 175.937764,34.2912432 175.872355,34.3222061 C175.774241,34.5389464 175.586193,34.7479429 175.308204,34.9492017 C175.030215,35.1504606 174.613238,35.2510885 174.057261,35.2510885 L171.261034,35.2510885 C171.032102,35.2510885 170.835878,35.320754 170.672355,35.4600871 C170.508832,35.5994201 170.427072,35.7774542 170.427072,35.9941945 L170.427072,45.4687954 L175.627072,45.4687954 C175.856004,45.4687954 175.94594,45.5849045 175.896883,45.8171263 C175.847826,46.049348 175.733362,46.3125288 175.553487,46.6066763 C175.373612,46.9008239 175.169211,47.1717453 174.940279,47.4194485 C174.711347,47.6671517 174.564179,47.8064827 174.49877,47.8374456 C174.400656,48.0851488 174.212608,48.3018859 173.934619,48.4876633 C173.65663,48.6734407 173.239653,48.766328 172.683676,48.766328 L171.261034,48.7198839 C171.032102,48.7198839 170.835878,48.79729 170.672355,48.9521045 C170.508832,49.106919 170.427072,49.2926936 170.427072,49.509434 L170.427072,60.5166909 Z" id="icoFABULIVE"></path>
                </g>
            </g>
        </g>
    </g>
</svg>