<?xml version="1.0" encoding="UTF-8"?>
<svg width="146px" height="32px" viewBox="0 0 146 32" version="1.1" xmlns="http://www.w3.org/2000/svg" xmlns:xlink="http://www.w3.org/1999/xlink">
    <!-- Generator: Sketch 43.1 (39012) - http://www.bohemiancoding.com/sketch -->
    <title>icoFABULIVE</title>
    <desc>Created with Sketch.</desc>
    <defs></defs>
    <g id="Fabulive" stroke="none" stroke-width="1" fill="none" fill-rule="evenodd">
        <g id="FabuliveWeb---Home-screen" transform="translate(-32.000000, -32.000000)" fill="#FFFFFF">
            <g id="Header">
                <g id="Top-Bar">
                    <g id="White" transform="translate(32.000000, 27.000000)">
                        <g id="Signed-in-White">
                            <path d="M11.0377358,5 C10.8415085,5.40251774 10.6207559,5.8592137 10.3754717,6.3701016 C10.1301875,6.88098949 9.97484309,7.19835448 9.90943396,7.3222061 C9.7786157,7.53894642 9.58239125,7.74794287 9.32075472,7.94920174 C9.05911819,8.15046061 8.65031725,8.25108853 8.09433962,8.25108853 L4.26792453,8.25108853 C4.03899257,8.25108853 3.84276811,8.32075402 3.67924528,8.46008708 C3.51572245,8.59942015 3.43396226,8.77745417 3.43396226,8.99419448 L3.43396226,18.9332366 L9.56603774,18.8867925 C9.36981034,19.3202731 9.14905783,19.7924503 8.90377358,20.3033382 C8.65848934,20.8142261 8.50314498,21.1470723 8.43773585,21.3018868 C8.30691758,21.5186271 8.10251711,21.719883 7.8245283,21.9056604 C7.54653949,22.0914378 7.12956253,22.1843251 6.57358491,22.1843251 L4.26792453,22.1843251 C4.03899257,22.1843251 3.84276811,22.2539906 3.67924528,22.3933237 C3.51572245,22.5326567 3.43396226,22.7106907 3.43396226,22.9274311 L3.43396226,35.7924528 C3.43396226,36.071119 3.33585004,36.3033372 3.13962264,36.4891147 C2.94339525,36.6748921 2.69811468,36.7677794 2.40377358,36.7677794 L0,36.7677794 L0,5.92888244 C0,5.68117922 0.106288245,5.46444215 0.318867925,5.27866473 C0.531447604,5.09288731 0.768552151,5 1.03018868,5 L11.0377358,5 Z M29.1801477,36.7677794 L25.4027892,36.7677794 L22.4103364,14.8461538 L19.368827,36.7677794 L15.5914685,36.7677794 L20.6933553,5 L22.5084496,5 C23.2606546,5 23.7430398,5.17803402 23.9556194,5.5341074 C24.1681991,5.89018078 24.3071914,6.28495187 24.3726006,6.71843251 L29.1801477,36.7677794 Z M46.3904842,9.8766328 C46.3904842,9.25737475 46.2106117,8.83164122 45.8508615,8.59941945 C45.4911113,8.36719768 45.0659583,8.25108853 44.5753898,8.25108853 L42.7602955,8.25108853 L42.7602955,19.3976778 L44.5753898,19.3976778 C45.0659583,19.3976778 45.4911113,19.2660874 45.8508615,19.0029028 C46.2106117,18.7397181 46.3904842,18.2520597 46.3904842,17.5399129 L46.3904842,9.8766328 Z M46.3904842,24.2278665 C46.3904842,23.5157197 46.2106117,23.0280613 45.8508615,22.7648766 C45.4911113,22.501692 45.0659583,22.3701016 44.5753898,22.3701016 L42.7602955,22.3701016 L42.7602955,33.5166909 L44.5753898,33.5166909 C45.0659583,33.5166909 45.4911113,33.4005817 45.8508615,33.1683599 C46.2106117,32.9361382 46.3904842,32.5104046 46.3904842,31.8911466 L46.3904842,24.2278665 Z M47.9112389,20.8838897 C48.2709891,21.0077413 48.5980298,21.1935159 48.8923709,21.4412192 C49.1540075,21.6579595 49.382936,21.9288808 49.5791634,22.2539913 C49.7753908,22.5791018 49.873503,22.9893541 49.873503,23.4847605 L49.873503,32.7735849 C49.873503,33.8882494 49.4565261,34.8326038 48.6225596,35.6066763 C47.7885932,36.3807489 46.7829429,36.7677794 45.6055785,36.7677794 L39.3263332,36.7677794 L39.3263332,5 L45.6055785,5 C46.1942607,5 46.75023,5.10062792 47.273503,5.30188679 C47.7967761,5.50314566 48.2464571,5.78180761 48.6225596,6.13788099 C48.9986621,6.49395437 49.3011748,6.91194729 49.5301068,7.39187228 C49.7590388,7.87179727 49.873503,8.39041811 49.873503,8.94775036 L49.873503,18.2830189 C49.873503,18.8093882 49.7753908,19.2273811 49.5791634,19.5370102 C49.382936,19.8466392 49.1540075,20.1098199 48.8923709,20.3265602 C48.5980298,20.5742635 48.2709891,20.7600381 47.9112389,20.8838897 Z M72.7253489,5 L72.7253489,33.0058055 C72.6926443,34.0895071 72.2838434,35.0106397 71.4989338,35.7692308 C70.7140242,36.5278219 69.749254,36.9380742 68.6045942,37 L65.9555375,37 C65.3668554,37 64.8108861,36.8916315 64.287613,36.6748911 C63.76434,36.4581508 63.3146589,36.1717483 62.9385564,35.8156749 C62.5624539,35.4596015 62.2599412,35.0416086 62.0310092,34.5616836 C61.8020773,34.0817586 61.687613,33.5631378 61.687613,33.0058055 L61.687613,5.88243832 C61.687613,5.63473509 61.7939013,5.42573864 62.0064809,5.25544267 C62.2190606,5.08514671 62.4561652,5 62.7178017,5 L65.1215753,5 L65.1215753,32.4020319 C65.1215753,32.8664755 65.2932717,33.2689872 65.6366696,33.6095791 C65.9800676,33.950171 66.3970445,34.1204644 66.887613,34.1204644 L67.4272357,34.1204644 C67.9505087,34.1204644 68.3920137,33.9579116 68.751764,33.6328012 C69.1115142,33.3076907 69.2913866,32.8974384 69.2913866,32.4020319 L69.2913866,5 L72.7253489,5 Z M95.9696475,33.5166909 C95.8061247,33.9501715 95.6017242,34.4146081 95.35644,34.9100145 C95.1111558,35.405421 94.9558114,35.7305266 94.8904023,35.8853411 C94.759584,36.1020814 94.5551835,36.3033372 94.2771947,36.4891147 C93.9992059,36.6748921 93.5822289,36.7677794 93.0262513,36.7677794 L84.7847419,36.7677794 L84.7847419,5 L87.1885155,5 C87.4828566,5 87.7281371,5.09288731 87.9243645,5.27866473 C88.1205919,5.46444215 88.2187042,5.69666044 88.2187042,5.97532656 L88.2187042,33.5166909 L95.9696475,33.5166909 Z M104.595078,5 C105.118351,5 105.478096,5.14707158 105.674324,5.44121916 C105.870551,5.73536673 105.968663,6.00628807 105.968663,6.25399129 L105.968663,36.7677794 L103.515833,36.7677794 C103.123378,36.7677794 102.869922,36.6903733 102.755456,36.5355588 C102.64099,36.3807443 102.567406,36.2259321 102.534701,36.0711176 L102.534701,5 L104.595078,5 Z M129.997868,5 L124.846924,36.7677794 L123.129943,36.7677794 C122.704784,36.7677794 122.361391,36.6671515 122.099754,36.4658926 C121.838118,36.2646337 121.633717,36.0324154 121.486547,35.7692308 C121.339376,35.5060461 121.241264,35.250606 121.192207,35.0029028 C121.14315,34.7551995 121.118622,34.6003873 121.118622,34.5384615 L116.262018,5 L118.911075,5 C119.041893,5 119.221766,5.06966549 119.450698,5.20899855 C119.67963,5.34833161 119.84315,5.68117782 119.941264,6.20754717 L123.129943,26.1320755 L126.563905,5 L129.997868,5 Z M138.427072,33.5166909 L145.638393,33.5166909 C145.867325,33.5166909 145.949085,33.6328 145.883676,33.8650218 C145.818267,34.0972435 145.695626,34.3604243 145.515751,34.6545718 C145.335876,34.9487194 145.139652,35.2196408 144.927072,35.467344 C144.714492,35.7150472 144.5755,35.8543782 144.510091,35.8853411 C144.411977,36.1020814 144.223929,36.3033372 143.94594,36.4891147 C143.667951,36.6748921 143.250974,36.7677794 142.694996,36.7677794 L134.99311,36.7677794 L134.99311,5.92888244 C134.99311,5.65021631 135.099398,5.42573864 135.311978,5.25544267 C135.524557,5.08514671 135.761662,5 136.023298,5 L145.000657,5 C145.229589,5 145.311349,5.11610914 145.24594,5.34833091 C145.180531,5.58055269 145.05789,5.8359928 144.878015,6.11465893 C144.69814,6.39332505 144.501916,6.65650578 144.289336,6.904209 C144.076756,7.15191222 143.937764,7.29124319 143.872355,7.3222061 C143.774241,7.53894642 143.586193,7.74794287 143.308204,7.94920174 C143.030215,8.15046061 142.613238,8.25108853 142.057261,8.25108853 L139.261034,8.25108853 C139.032102,8.25108853 138.835878,8.32075402 138.672355,8.46008708 C138.508832,8.59942015 138.427072,8.77745417 138.427072,8.99419448 L138.427072,18.4687954 L143.627072,18.4687954 C143.856004,18.4687954 143.94594,18.5849045 143.896883,18.8171263 C143.847826,19.049348 143.733362,19.3125288 143.553487,19.6066763 C143.373612,19.9008239 143.169211,20.1717453 142.940279,20.4194485 C142.711347,20.6671517 142.564179,20.8064827 142.49877,20.8374456 C142.400656,21.0851488 142.212608,21.3018859 141.934619,21.4876633 C141.65663,21.6734407 141.239653,21.766328 140.683676,21.766328 L139.261034,21.7198839 C139.032102,21.7198839 138.835878,21.79729 138.672355,21.9521045 C138.508832,22.106919 138.427072,22.2926936 138.427072,22.509434 L138.427072,33.5166909 Z" id="icoFABULIVE"></path>
                        </g>
                    </g>
                </g>
            </g>
        </g>
    </g>
</svg>