<svg xmlns="http://www.w3.org/2000/svg" width="86" height="107" viewBox="0 0 86 107">
    <g fill="none" fill-rule="evenodd">
        <rect width="15" height="4" x="71" y="60" fill="#C9DBE8" rx="2"/>
        <rect width="20" height="4" x="33" y="95" fill="#C9DBE8" rx="2"/>
        <rect width="16" height="4" x="35" y="103" fill="#C9DBE8" rx="2"/>
        <rect width="15" height="4" x="35.5" y="5.5" fill="#C9DBE8" rx="2" transform="rotate(-90 43 7.5)"/>
        <rect width="15" height="4" x="70.995" y="28.482" fill="#C9DBE8" rx="2" transform="rotate(-30 78.495 30.482)"/>
        <rect width="15" height="4" y="60" fill="#C9DBE8" rx="2"/>
        <rect width="15" height="4" x="-.005" y="28.482" fill="#C9DBE8" rx="2" transform="rotate(30 7.495 30.482)"/>
        <path stroke="#C9DBE8" stroke-width="4" d="M30.998 89h-.007.007zm0 0c.002 0 .002-.001.002-.005V70.101l-.999-.578A25.985 25.985 0 0 1 17 47c0-14.36 11.64-26 26-26s26 11.64 26 26c0 9.39-5.019 17.905-13.001 22.523L55 70.1v18.894c0 .002-.003.005.009.005H30.998z"/>
        <path stroke="#C9DBE8" stroke-linecap="round" stroke-width="4" d="M31.631 34.36A16.957 16.957 0 0 0 26 47c0 5.003 2.16 9.5 5.6 12.611"/>
    </g>
</svg>
