<svg xmlns="http://www.w3.org/2000/svg" width="100" height="88" viewBox="0 0 100 88">
    <g fill="none" fill-rule="evenodd">
        <path stroke="#C9DBE8" stroke-width="4" d="M12.191 83.754a.953.953 0 0 1-.006.052l.006-.052zm66.721 2.094v0zm-.03-.326h-.002.002zM12.4 81.185c.055-.696.115-1.476.18-2.331l.026-.333a2694.421 2694.421 0 0 0 .438-5.819l.041-.547.159-2.148h-9.24a1.98 1.98 0 0 1-1.991-1.994l.092-28.89A2.038 2.038 0 0 1 4.132 37.1l7.875-.029L14 37.064V4.003C14 2.9 14.9 2 16.01 2h79.98C97.1 2 98 2.9 98 4.003v55.994A2.001 2.001 0 0 1 95.996 62H77.081l.16 2.147a3179.966 3179.966 0 0 0 .276 3.724 5043.234 5043.234 0 0 0 .667 8.815c.294 3.835.533 6.869.698 8.836h-.004c-.229-.048-.42-.208-.876-.592a2911.948 2911.948 0 0 0-20.375-20.686 1353.163 1353.163 0 0 0-1.655-1.66L55.387 62H45.032l-.007 1.994-.012 4.005a2.013 2.013 0 0 1-2.011 2.008h-19.56l-.586.585-.228.229-.657.659a1547.976 1547.976 0 0 0-9.57 9.705zm-1.218 1.52l1.012.988.004.003.28.273-.276-.326-.008-.01-.85-1.006-.157-.187-.07.06-.074.06a2.298 2.298 0 0 0-.009.008c-.048.04-.05.047-.013.037a1.865 1.865 0 0 1 .046-.012c.067-.016.08-.018-.012-.03a3.928 3.928 0 0 0-.02-.003v.008l-.005.035-.249 1.94.401-1.838.025-.115c.047.01.093.022.138.037.474.155.828.549.849 1.005a.934.934 0 0 1-.003.122l.007-.056a7.577 7.577 0 0 0 .004-.055c.053-.622.12-1.452.198-2.458a1582.396 1582.396 0 0 0-1.345 1.377l-.01.01.022.021.115.112z"/>
        <path stroke="#C9DBE8" stroke-width="4" d="M78.912 85.848v0zm-.03-.326c-.23-.046-.422-.206-.88-.592a2911.948 2911.948 0 0 0-20.375-20.686 1353.163 1353.163 0 0 0-1.655-1.66L55.387 62H16.004A2.006 2.006 0 0 1 14 59.997V4.003C14 2.9 14.9 2 16.01 2h79.98C97.1 2 98 2.9 98 4.003v55.994A2.001 2.001 0 0 1 95.996 62H77.081l.16 2.147a3179.966 3179.966 0 0 0 .276 3.724 5043.234 5043.234 0 0 0 .667 8.815c.294 3.835.533 6.869.698 8.836z"/>
        <rect width="56" height="4" x="28" y="18" fill="#C9DBE8" rx="2"/>
        <rect width="56" height="4" x="28" y="30" fill="#C9DBE8" rx="2"/>
        <rect width="24" height="4" x="28" y="42" fill="#C9DBE8" rx="2"/>
    </g>
</svg>
