<svg xmlns="http://www.w3.org/2000/svg" width="96" height="98" viewBox="0 0 96 98">
    <g fill="none" fill-rule="evenodd" stroke="#C9DBE8" stroke-width="4">
        <path d="M22.04 2.586c.27.164.668.368 1.222.608 1.062.46 2.485.958 4.326 1.482 3.093.88 5.922 1.952 8.288 3.219a24.17 24.17 0 0 1 4.268 2.918 24.686 24.686 0 0 1 3.728 3.953c.35.465.644.894.883 1.274.136.216.22.36.25.418l.104.17c.346.511.699 1.224 1.008 2.04l.805 2.13 2.007-1.073c2.838-1.515 6.283-2.646 9.354-2.46 3.363.045 5.977.528 9.774 1.6.356.1 1.644.468 1.539.439.616.175 1.074.303 1.521.422 1.163.309 2.134.525 3.08.672.266.041.536.08.81.116 2.766.361 5.66.429 8.253.33.383-.015.662-.03.819-.04.996-.03 1.847.799 1.847 1.88V25h6.071c1.104 0 2.003.9 2.003 2v64a2 2 0 0 1-2.003 2H53.323l-.385 1.503A1.997 1.997 0 0 1 51.004 96h-8.008a2.003 2.003 0 0 1-1.934-1.499L40.676 93H4.003C2.899 93 2 92.1 2 91V27a2 2 0 0 1 2.003-2h5.511l-.016-2.016-.01-1.306a1.904 1.904 0 0 1 1.936-1.943l7.84.098 2.014.025.011-2.013.088-14.743c.004-.69.08-.776.663-.516z"/>
        <path d="M83.665 83.011l-.01.002.01-.002zm-71.353.05l.028.005-.028-.005zM22.04 2.586c.27.164.668.368 1.222.608 1.062.46 2.485.958 4.326 1.482 3.093.88 5.922 1.952 8.288 3.219a24.17 24.17 0 0 1 4.268 2.918 24.686 24.686 0 0 1 3.728 3.953c.35.465.644.894.883 1.274.136.216.22.36.25.418l.104.17c.346.511.699 1.224 1.008 2.04l.805 2.13 2.007-1.073c2.838-1.515 6.283-2.646 9.354-2.46 3.363.045 5.977.528 9.774 1.6.356.1 1.644.468 1.539.439.616.175 1.074.303 1.521.422 1.163.309 2.134.525 3.08.672.266.041.536.08.81.116 2.766.361 5.66.429 8.253.33.383-.015.662-.03.819-.04.996-.03 1.847.799 1.847 1.88v58.317c0 1.11-.894 2.007-1.964 1.992l-.154-.002-.143.02c.023-.003.022-.003-.007-.001-.36.02-1.032.013-2.083-.048-1.563-.09-3.651-.285-6.336-.608a79.353 79.353 0 0 1-1.973-.267c-.375-.055-1.88-.279-2.248-.332-2.104-.308-3.632-.502-5.173-.636-1.976-.173-3.735-.219-5.344-.115-2.696.174-4.561.753-7.116 1.956-.024.012-.91.433-1.154.546-1.667.772-2.743 1.073-4.202 1.073-1.523 0-2.473-.309-4.111-1.195-.131-.07-.598-.325-.678-.369-2.32-1.26-3.994-1.845-6.566-2.01l-.12-.005c-2.581-.011-10.733.721-15.626 1.357-2.73.355-4.858.566-6.452.661-1.08.065-1.776.069-2.152.042-.027-.002-.03-.002-.012.001l-.139-.025-.17-.001c-1.105-.01-2.027-.938-2.036-2.06l-.48-59.297a1.904 1.904 0 0 1 1.937-1.943l7.84.098 2.014.025.011-2.013.088-14.743c.004-.69.08-.776.663-.516z"/>
        <path d="M47.134 82.301a8.596 8.596 0 0 1-.063-.082l.13.194a9.733 9.733 0 0 0-.067-.112zM47 82.085a27.256 27.256 0 0 0-1.745-2.399 38.189 38.189 0 0 0-5.772-5.77 38.401 38.401 0 0 0-3.459-2.493c-1.609-1.211-3.819-2.207-6.503-3.05a52.466 52.466 0 0 0-5.698-1.415c-.677-.131-1.305-.241-1.872-.331a31.843 31.843 0 0 0-.734-.11c-.052-.009-.215-.202-.215-.315l.375-63.1c.004-.69.08-.776.663-.516.27.164.668.368 1.222.608 1.062.46 2.485.958 4.326 1.482 3.093.88 5.922 1.952 8.288 3.219a24.17 24.17 0 0 1 4.268 2.918 24.686 24.686 0 0 1 3.728 3.953c.35.465.644.894.883 1.274.136.216.22.36.25.418l.104.17c1.015 1.5 1.896 4.38 1.896 6.2L47 82.085z"/>
    </g>
</svg>
