<?xml version="1.0" encoding="UTF-8"?>
<svg width="18px" height="18px" viewBox="0 0 18 18" version="1.1" xmlns="http://www.w3.org/2000/svg" xmlns:xlink="http://www.w3.org/1999/xlink">
    <!-- Generator: sketchtool 46.1 (44463) - http://www.bohemiancoding.com/sketch -->
    <title>47EA2FF3-CEB4-463A-9092-D0530BF01B90</title>
    <desc>Created with sketchtool.</desc>
    <defs></defs>
    <g id="Page-1" stroke="none" stroke-width="1" fill="none" fill-rule="evenodd">
        <g id="Purchase-page" transform="translate(-804.000000, -621.000000)" fill="#FFFFFF">
            <g id="item2" transform="translate(635.000000, 252.000000)">
                <g id="btn_save" transform="translate(135.000000, 358.000000)">
                    <g id="Group-4" transform="translate(34.000000, 11.000000)">
                        <g id="iconSave-/-18x18">
                            <path d="M17,18 L0,18 L0,17 L0,0 L1,0 L13,4.4408921e-16 L18,5 L18,18 L17,18 Z M16,16 L16,6 L12,2 L11,2 L11,4.5 L11,6 L5,6 L5,4.5 L5,2 L2,2 L2,16 L4.25,16 L4,16 L4,11 L6,11 L6,16 L5.25,16 L16,16 Z M7,2 L7,4 L9,4 L9,2 L7,2 Z M12,11 L14,11 L14,16 L12,16 L12,11 Z M4,9 L14,9 L14,11 L4,11 L4,9 Z M7,13 L11,13 L11,15 L7,15 L7,13 Z" id="Combined-Shape"></path>
                        </g>
                    </g>
                </g>
            </g>
        </g>
    </g>
</svg>