<?xml version="1.0" encoding="UTF-8"?>
<svg width="18px" height="18px" viewBox="0 0 18 18" version="1.1" xmlns="http://www.w3.org/2000/svg" xmlns:xlink="http://www.w3.org/1999/xlink">
    <!-- Generator: sketchtool 46.1 (44463) - http://www.bohemiancoding.com/sketch -->
    <title>8173805C-C8FB-4118-8476-F1FB1F44C102</title>
    <desc>Created with sketchtool.</desc>
    <defs></defs>
    <g id="Page-1" stroke="none" stroke-width="1" fill="none" fill-rule="evenodd">
        <g id="Purchase-page" transform="translate(-801.000000, -621.000000)" fill="#FFFFFF">
            <g id="item2" transform="translate(635.000000, 252.000000)">
                <g id="btn_delete" transform="translate(135.000000, 358.000000)">
                    <g id="icoDelete" transform="translate(31.000000, 11.000000)">
                        <g id="Combined-Shape">
                            <path d="M4,3 L4,16 L14,16 L14,3 L4,3 Z M2,3 L0,3 L0,0 L18,0 L18,3 L16,3 L16,18 L15,18 L2,18 L2,17 L2,3 Z M6,5 L8,5 L8,14 L6,14 L6,5 Z M10,5 L12,5 L12,14 L10,14 L10,5 Z"></path>
                        </g>
                    </g>
                </g>
            </g>
        </g>
    </g>
</svg>