<?xml version="1.0" encoding="UTF-8"?>
<svg width="20px" height="20px" viewBox="0 0 20 20" version="1.1" xmlns="http://www.w3.org/2000/svg" xmlns:xlink="http://www.w3.org/1999/xlink">
    <!-- Generator: sketchtool 46.1 (44463) - http://www.bohemiancoding.com/sketch -->
    <title>5D31F936-288A-47A9-A35A-4CC767A37778</title>
    <desc>Created with sketchtool.</desc>
    <defs></defs>
    <g id="Page-1" stroke="none" stroke-width="1" fill="none" fill-rule="evenodd">
        <g id="Purchase-page" transform="translate(-441.000000, -620.000000)" stroke="#000000" stroke-width="0.3" fill="#000000">
            <g id="item1" transform="translate(335.000000, 252.000000)">
                <g id="btn_edit" transform="translate(0.000000, 359.000000)">
                    <g id="icoEdit" transform="translate(106.000000, 9.000000)">
                        <g transform="translate(1.000000, 1.000000)" id="Fill-2">
                            <path d="M0.0185518583,13.4997478 L0,17.202529 C0,17.4111531 0.076110188,17.6197772 0.228568408,17.7719138 C0.381026629,17.9240504 0.570350721,18 0.780367271,18 L4.47171139,17.9814873 C4.68077656,17.9814873 4.87105203,17.9053003 5.02351025,17.7534011 L17.7714911,5.03136548 C18.0761696,4.72827904 18.0761696,4.23413184 17.7714911,3.91134596 L14.118202,0.228026859 C13.8135234,-0.0760089531 13.3192829,-0.0760089531 12.9960524,0.228026859 L10.446599,2.79156379 L0.247120267,12.9491131 C0.114165282,13.1010123 0.0185518583,13.2911237 0.0185518583,13.4997478 Z M13.4403697,2 L16,4.55963031 L14.5596303,6 L12,3.44036969 L13.4403697,2 Z M2.01857217,13.4242448 L11.4282313,4 L14,6.57575517 L4.59034089,15.9804452 L2,16 L2.01857217,13.4242448 Z" transform="translate(9.000000, 9.000000) rotate(-360.000000) translate(-9.000000, -9.000000) "></path>
                        </g>
                    </g>
                </g>
            </g>
        </g>
    </g>
</svg>