<svg xmlns="http://www.w3.org/2000/svg" xmlns:xlink="http://www.w3.org/1999/xlink"><symbol id="gift-button-blue" viewBox="0 0 24 26">

    
    <g id="Page-1" stroke="none" stroke-width="1" fill="none" fill-rule="evenodd">
        <g id="Purchase-page" transform="translate(-380.000000, -433.000000)">
            <g id="item1" transform="translate(335.000000, 252.000000)">
                <g id="blue_gift" transform="translate(40.000000, 181.000000)">
                    <g id="Group-5" transform="translate(5.000000, 0.000000)">
                        <g id="Gift-Button-Blue">
                            <g id="Gift-Button">
                                <rect id="Rectangle-9" fill="#39A3DD" x="2.08695652" y="5.93625914" width="19.826087" height="19.615465"/>
                                <path d="M12,6.83960293 C12,6.83960293 13.0434783,0.903343783 18.6521739,0 C19.6956522,0 21.3913043,2.06478579 21.3913043,3.48432602 C20.7391304,5.03291536 18.3913043,6.71055381 13.4347826,7.87199582 C12.1304348,8.38819227 12,6.83960293 12,6.83960293 Z" id="Path-3" fill="#6EC2F0"/>
                                <path d="M2.60869565,6.83960293 C2.60869565,6.83960293 3.65217391,0.903343783 9.26086957,0 C10.3043478,0 12,2.06478579 12,3.48432602 C11.3478261,5.03291536 9,6.71055381 4.04347826,7.87199582 C2.73913043,8.38819227 2.60869565,6.83960293 2.60869565,6.83960293 Z" id="Path-3-Copy" fill="#6EC2F0" transform="translate(7.304348, 3.988671) scale(-1, 1) translate(-7.304348, -3.988671) "/>
                                <ellipse id="Oval-3" fill="#59A7D2" cx="12" cy="5.93625914" rx="2.08695652" ry="2.06478579"/>
                                <rect id="Rectangle-9-Copy-2" fill="#2690CB" x="11.2173913" y="5.93625914" width="10.6956522" height="19.615465"/>
                                <rect id="Rectangle-9-Copy-3" fill="#156693" transform="translate(12.000000, 12.646813) rotate(-270.000000) translate(-12.000000, -12.646813) " x="10.9565217" y="2.83908046" width="2.08695652" height="19.615465"/>
                                <rect id="Rectangle-9-Copy" fill="#39A3DD" x="0" y="5.93625914" width="24" height="6.19435737" rx="3.09717868"/>
                                <rect id="Rectangle-9-Copy-4" fill="#6EC2F0" transform="translate(12.000000, 15.743992) rotate(-270.000000) translate(-12.000000, -15.743992) " x="2.08695652" y="13.1630094" width="19.826087" height="5.16196447"/>
                                <rect id="Rectangle-9-Copy-5" fill="#59A7D2" transform="translate(12.000000, 12.904911) rotate(-270.000000) translate(-12.000000, -12.904911) " x="11.2173913" y="10.3239289" width="1.56521739" height="5.16196447"/>
                            </g>
                        </g>
                    </g>
                </g>
            </g>
        </g>
    </g>
</symbol><symbol id="gift-button-green" viewBox="0 0 24 26">

    
    <g id="Page-1" stroke="none" stroke-width="1" fill="none" fill-rule="evenodd">
        <g id="Purchase-page" transform="translate(-463.000000, -433.000000)">
            <g id="item1" transform="translate(335.000000, 252.000000)">
                <g id="green_gift" transform="translate(127.000000, 181.000000)">
                    <g id="icoGreenGift" transform="translate(1.000000, 0.000000)">
                        <g id="Gift-Button-Green">
                            <g id="Gift-Button-Copy">
                                <rect id="Rectangle-9" fill="#30B198" x="2.08695652" y="5.93625914" width="19.826087" height="19.615465"/>
                                <path d="M12,6.83960293 C12,6.83960293 13.0434783,0.903343783 18.6521739,0 C19.6956522,0 21.3913043,2.06478579 21.3913043,3.48432602 C20.7391304,5.03291536 18.3913043,6.71055381 13.4347826,7.87199582 C12.1304348,8.38819227 12,6.83960293 12,6.83960293 Z" id="Path-3" fill="#3DDEBF"/>
                                <path d="M2.60869565,6.83960293 C2.60869565,6.83960293 3.65217391,0.903343783 9.26086957,0 C10.3043478,0 12,2.06478579 12,3.48432602 C11.3478261,5.03291536 9,6.71055381 4.04347826,7.87199582 C2.73913043,8.38819227 2.60869565,6.83960293 2.60869565,6.83960293 Z" id="Path-3-Copy" fill="#3DDEBF" transform="translate(7.304348, 3.988671) scale(-1, 1) translate(-7.304348, -3.988671) "/>
                                <ellipse id="Oval-3" fill="#30B198" cx="12" cy="5.93625914" rx="2.08695652" ry="2.06478579"/>
                                <rect id="Rectangle-9-Copy-2" fill="#00A39F" x="11.2173913" y="5.93625914" width="10.6956522" height="19.615465"/>
                                <rect id="Rectangle-9-Copy-3" fill="#177366" transform="translate(12.000000, 12.646813) rotate(-270.000000) translate(-12.000000, -12.646813) " x="10.9565217" y="2.83908046" width="2.08695652" height="19.615465"/>
                                <rect id="Rectangle-9-Copy" fill="#30B198" x="0" y="5.93625914" width="24" height="6.19435737" rx="3.09717868"/>
                                <rect id="Rectangle-9-Copy-4" fill="#3DDEBF" transform="translate(12.000000, 15.743992) rotate(-270.000000) translate(-12.000000, -15.743992) " x="2.08695652" y="13.1630094" width="19.826087" height="5.16196447"/>
                                <rect id="Rectangle-9-Copy-5" fill="#30B198" transform="translate(12.000000, 12.904911) rotate(-270.000000) translate(-12.000000, -12.904911) " x="11.2173913" y="10.3239289" width="1.56521739" height="5.16196447"/>
                            </g>
                        </g>
                    </g>
                </g>
            </g>
        </g>
    </g>
</symbol><symbol id="gift-button-red" viewBox="0 0 24 26">

    
    <g id="Page-1" stroke="none" stroke-width="1" fill="none" fill-rule="evenodd">
        <g id="Purchase-page" transform="translate(-541.000000, -433.000000)">
            <g id="item1" transform="translate(335.000000, 252.000000)">
                <g id="red_gift" transform="translate(206.000000, 181.000000)">
                    <g id="Group-6">
                        <g id="Gift-Button-Red">
                            <g id="Gift-Button-Copy-2">
                                <rect id="Rectangle-9" fill="#FF3E7D" x="2.08695652" y="5.93625914" width="19.826087" height="19.615465"/>
                                <path d="M12,6.83960293 C12,6.83960293 13.0434783,0.903343783 18.6521739,0 C19.6956522,0 21.3913043,2.06478579 21.3913043,3.48432602 C20.7391304,5.03291536 18.3913043,6.71055381 13.4347826,7.87199582 C12.1304348,8.38819227 12,6.83960293 12,6.83960293 Z" id="Path-3" fill="#FF6F9F"/>
                                <path d="M2.60869565,6.83960293 C2.60869565,6.83960293 3.65217391,0.903343783 9.26086957,0 C10.3043478,0 12,2.06478579 12,3.48432602 C11.3478261,5.03291536 9,6.71055381 4.04347826,7.87199582 C2.73913043,8.38819227 2.60869565,6.83960293 2.60869565,6.83960293 Z" id="Path-3-Copy" fill="#FF6F9F" transform="translate(7.304348, 3.988671) scale(-1, 1) translate(-7.304348, -3.988671) "/>
                                <ellipse id="Oval-3" fill="#D14170" cx="12" cy="5.93625914" rx="2.08695652" ry="2.06478579"/>
                                <rect id="Rectangle-9-Copy-2" fill="#FF3E7D" x="11.2173913" y="5.93625914" width="10.6956522" height="19.615465"/>
                                <rect id="Rectangle-9-Copy-3" fill="#C3124C" transform="translate(12.000000, 12.646813) rotate(-270.000000) translate(-12.000000, -12.646813) " x="10.9565217" y="2.83908046" width="2.08695652" height="19.615465"/>
                                <rect id="Rectangle-9-Copy" fill="#FF3E7D" x="0" y="5.93625914" width="24" height="6.19435737" rx="3.09717868"/>
                                <rect id="Rectangle-9-Copy-4" fill="#FF6F9F" transform="translate(12.000000, 15.743992) rotate(-270.000000) translate(-12.000000, -15.743992) " x="2.08695652" y="13.1630094" width="19.826087" height="5.16196447"/>
                                <rect id="Rectangle-9-Copy-5" fill="#D14170" transform="translate(12.000000, 12.904911) rotate(-270.000000) translate(-12.000000, -12.904911) " x="11.2173913" y="10.3239289" width="1.56521739" height="5.16196447"/>
                            </g>
                        </g>
                    </g>
                </g>
            </g>
        </g>
    </g>
</symbol><symbol id="ico-delete" viewBox="0 0 18 18"><path d="M4 3L4 16 14 16 14 3 4 3ZM2 3L0 3 0 0 18 0 18 3 16 3 16 18 15 18 2 18 2 17 2 3ZM6 5L8 5 8 14 6 14 6 5ZM10 5L12 5 12 14 10 14 10 5Z"/></symbol><symbol id="ico-drop-down" viewBox="0 0 7 4"><path fill-rule="evenodd" d="M6.334 0c.555 0 .699.336.325.746L4.115 3.537a.904.904 0 0 1-1.36 0L.21.747C-.165.333-.027 0 .535 0h5.8z"/></symbol><symbol id="ico-edit" viewBox="0 0 20 20"><g style="stroke-width:0.3;stroke:#000"><path d="M1 14.5L1 18.2C1 18.4 1.1 18.6 1.2 18.8 1.4 18.9 1.6 19 1.8 19L5.5 19C5.7 19 5.9 18.9 6 18.8L18.8 6C19.1 5.7 19.1 5.2 18.8 4.9L15.1 1.2C14.8 0.9 14.3 0.9 14 1.2L11.4 3.8 1.2 13.9C1.1 14.1 1 14.3 1 14.5ZM14.4 3L17 5.6 15.6 7 13 4.4 14.4 3ZM3 14.4L12.4 5 15 7.6 5.6 17 3 17 3 14.4Z"/></g></symbol><symbol id="ico-refresh" viewBox="0 0 18 18"><path d="M2.4 10L0 10 0 15.7 1.7 14.2C3.3 16.5 6 18 9 18 13.6 18 17.4 14.5 18 10L15.7 10C15.2 13.2 12.4 15.7 9 15.7 6.7 15.7 4.6 14.5 3.4 12.6L6.1 10 2.4 10Z"/><path d="M9 0C4.4 0 0.6 3.5 0 8L2.3 8C2.8 4.8 5.6 2.3 9 2.3 11.4 2.3 13.6 3.6 14.8 5.6L12.4 8 18 8 18 2.3 16.4 3.9C14.8 1.6 12 0 9 0Z"/></symbol><symbol id="ico-save" viewBox="0 0 18 18"><path d="M17 18L0 18 0 17 0 0 1 0 13 0 18 5 18 18 17 18ZM16 16L16 6 12 2 11 2 11 4.5 11 6 5 6 5 4.5 5 2 2 2 2 16 4.3 16 4 16 4 11 6 11 6 16 5.3 16 16 16ZM7 2L7 4 9 4 9 2 7 2ZM12 11L14 11 14 16 12 16 12 11ZM4 9L14 9 14 11 4 11 4 9ZM7 13L11 13 11 15 7 15 7 13Z"/></symbol><symbol id="ico-upload" viewBox="0 0 18 18"><path d="M18 1L18 16 17 16 13 16 13 14 16 14 16 2 2 2 2 14 5 14 5 16 0 16 0 15 0 0 1 0 18 0 18 1ZM10 9L10 18 8 18 8 9 6 9 9 5 12 9 10 9Z"/></symbol><symbol id="sprite"><symbol id="gift-button-blue" viewBox="0 0 24 26">

    
    <g id="Page-1" stroke="none" stroke-width="1" fill="none" fill-rule="evenodd">
        <g id="Purchase-page" transform="translate(-380.000000, -433.000000)">
            <g id="item1" transform="translate(335.000000, 252.000000)">
                <g id="blue_gift" transform="translate(40.000000, 181.000000)">
                    <g id="Group-5" transform="translate(5.000000, 0.000000)">
                        <g id="Gift-Button-Blue">
                            <g id="Gift-Button">
                                <rect id="Rectangle-9" fill="#39A3DD" x="2.08695652" y="5.93625914" width="19.826087" height="19.615465"/>
                                <path d="M12,6.83960293 C12,6.83960293 13.0434783,0.903343783 18.6521739,0 C19.6956522,0 21.3913043,2.06478579 21.3913043,3.48432602 C20.7391304,5.03291536 18.3913043,6.71055381 13.4347826,7.87199582 C12.1304348,8.38819227 12,6.83960293 12,6.83960293 Z" id="Path-3" fill="#6EC2F0"/>
                                <path d="M2.60869565,6.83960293 C2.60869565,6.83960293 3.65217391,0.903343783 9.26086957,0 C10.3043478,0 12,2.06478579 12,3.48432602 C11.3478261,5.03291536 9,6.71055381 4.04347826,7.87199582 C2.73913043,8.38819227 2.60869565,6.83960293 2.60869565,6.83960293 Z" id="Path-3-Copy" fill="#6EC2F0" transform="translate(7.304348, 3.988671) scale(-1, 1) translate(-7.304348, -3.988671) "/>
                                <ellipse id="Oval-3" fill="#59A7D2" cx="12" cy="5.93625914" rx="2.08695652" ry="2.06478579"/>
                                <rect id="Rectangle-9-Copy-2" fill="#2690CB" x="11.2173913" y="5.93625914" width="10.6956522" height="19.615465"/>
                                <rect id="Rectangle-9-Copy-3" fill="#156693" transform="translate(12.000000, 12.646813) rotate(-270.000000) translate(-12.000000, -12.646813) " x="10.9565217" y="2.83908046" width="2.08695652" height="19.615465"/>
                                <rect id="Rectangle-9-Copy" fill="#39A3DD" x="0" y="5.93625914" width="24" height="6.19435737" rx="3.09717868"/>
                                <rect id="Rectangle-9-Copy-4" fill="#6EC2F0" transform="translate(12.000000, 15.743992) rotate(-270.000000) translate(-12.000000, -15.743992) " x="2.08695652" y="13.1630094" width="19.826087" height="5.16196447"/>
                                <rect id="Rectangle-9-Copy-5" fill="#59A7D2" transform="translate(12.000000, 12.904911) rotate(-270.000000) translate(-12.000000, -12.904911) " x="11.2173913" y="10.3239289" width="1.56521739" height="5.16196447"/>
                            </g>
                        </g>
                    </g>
                </g>
            </g>
        </g>
    </g>
</symbol><symbol id="gift-button-green" viewBox="0 0 24 26">

    
    <g id="Page-1" stroke="none" stroke-width="1" fill="none" fill-rule="evenodd">
        <g id="Purchase-page" transform="translate(-463.000000, -433.000000)">
            <g id="item1" transform="translate(335.000000, 252.000000)">
                <g id="green_gift" transform="translate(127.000000, 181.000000)">
                    <g id="icoGreenGift" transform="translate(1.000000, 0.000000)">
                        <g id="Gift-Button-Green">
                            <g id="Gift-Button-Copy">
                                <rect id="Rectangle-9" fill="#30B198" x="2.08695652" y="5.93625914" width="19.826087" height="19.615465"/>
                                <path d="M12,6.83960293 C12,6.83960293 13.0434783,0.903343783 18.6521739,0 C19.6956522,0 21.3913043,2.06478579 21.3913043,3.48432602 C20.7391304,5.03291536 18.3913043,6.71055381 13.4347826,7.87199582 C12.1304348,8.38819227 12,6.83960293 12,6.83960293 Z" id="Path-3" fill="#3DDEBF"/>
                                <path d="M2.60869565,6.83960293 C2.60869565,6.83960293 3.65217391,0.903343783 9.26086957,0 C10.3043478,0 12,2.06478579 12,3.48432602 C11.3478261,5.03291536 9,6.71055381 4.04347826,7.87199582 C2.73913043,8.38819227 2.60869565,6.83960293 2.60869565,6.83960293 Z" id="Path-3-Copy" fill="#3DDEBF" transform="translate(7.304348, 3.988671) scale(-1, 1) translate(-7.304348, -3.988671) "/>
                                <ellipse id="Oval-3" fill="#30B198" cx="12" cy="5.93625914" rx="2.08695652" ry="2.06478579"/>
                                <rect id="Rectangle-9-Copy-2" fill="#00A39F" x="11.2173913" y="5.93625914" width="10.6956522" height="19.615465"/>
                                <rect id="Rectangle-9-Copy-3" fill="#177366" transform="translate(12.000000, 12.646813) rotate(-270.000000) translate(-12.000000, -12.646813) " x="10.9565217" y="2.83908046" width="2.08695652" height="19.615465"/>
                                <rect id="Rectangle-9-Copy" fill="#30B198" x="0" y="5.93625914" width="24" height="6.19435737" rx="3.09717868"/>
                                <rect id="Rectangle-9-Copy-4" fill="#3DDEBF" transform="translate(12.000000, 15.743992) rotate(-270.000000) translate(-12.000000, -15.743992) " x="2.08695652" y="13.1630094" width="19.826087" height="5.16196447"/>
                                <rect id="Rectangle-9-Copy-5" fill="#30B198" transform="translate(12.000000, 12.904911) rotate(-270.000000) translate(-12.000000, -12.904911) " x="11.2173913" y="10.3239289" width="1.56521739" height="5.16196447"/>
                            </g>
                        </g>
                    </g>
                </g>
            </g>
        </g>
    </g>
</symbol><symbol id="gift-button-red" viewBox="0 0 24 26">

    
    <g id="Page-1" stroke="none" stroke-width="1" fill="none" fill-rule="evenodd">
        <g id="Purchase-page" transform="translate(-541.000000, -433.000000)">
            <g id="item1" transform="translate(335.000000, 252.000000)">
                <g id="red_gift" transform="translate(206.000000, 181.000000)">
                    <g id="Group-6">
                        <g id="Gift-Button-Red">
                            <g id="Gift-Button-Copy-2">
                                <rect id="Rectangle-9" fill="#FF3E7D" x="2.08695652" y="5.93625914" width="19.826087" height="19.615465"/>
                                <path d="M12,6.83960293 C12,6.83960293 13.0434783,0.903343783 18.6521739,0 C19.6956522,0 21.3913043,2.06478579 21.3913043,3.48432602 C20.7391304,5.03291536 18.3913043,6.71055381 13.4347826,7.87199582 C12.1304348,8.38819227 12,6.83960293 12,6.83960293 Z" id="Path-3" fill="#FF6F9F"/>
                                <path d="M2.60869565,6.83960293 C2.60869565,6.83960293 3.65217391,0.903343783 9.26086957,0 C10.3043478,0 12,2.06478579 12,3.48432602 C11.3478261,5.03291536 9,6.71055381 4.04347826,7.87199582 C2.73913043,8.38819227 2.60869565,6.83960293 2.60869565,6.83960293 Z" id="Path-3-Copy" fill="#FF6F9F" transform="translate(7.304348, 3.988671) scale(-1, 1) translate(-7.304348, -3.988671) "/>
                                <ellipse id="Oval-3" fill="#D14170" cx="12" cy="5.93625914" rx="2.08695652" ry="2.06478579"/>
                                <rect id="Rectangle-9-Copy-2" fill="#FF3E7D" x="11.2173913" y="5.93625914" width="10.6956522" height="19.615465"/>
                                <rect id="Rectangle-9-Copy-3" fill="#C3124C" transform="translate(12.000000, 12.646813) rotate(-270.000000) translate(-12.000000, -12.646813) " x="10.9565217" y="2.83908046" width="2.08695652" height="19.615465"/>
                                <rect id="Rectangle-9-Copy" fill="#FF3E7D" x="0" y="5.93625914" width="24" height="6.19435737" rx="3.09717868"/>
                                <rect id="Rectangle-9-Copy-4" fill="#FF6F9F" transform="translate(12.000000, 15.743992) rotate(-270.000000) translate(-12.000000, -15.743992) " x="2.08695652" y="13.1630094" width="19.826087" height="5.16196447"/>
                                <rect id="Rectangle-9-Copy-5" fill="#D14170" transform="translate(12.000000, 12.904911) rotate(-270.000000) translate(-12.000000, -12.904911) " x="11.2173913" y="10.3239289" width="1.56521739" height="5.16196447"/>
                            </g>
                        </g>
                    </g>
                </g>
            </g>
        </g>
    </g>
</symbol><symbol id="ico-delete" viewBox="0 0 18 18"><path d="M4 3L4 16 14 16 14 3 4 3ZM2 3L0 3 0 0 18 0 18 3 16 3 16 18 15 18 2 18 2 17 2 3ZM6 5L8 5 8 14 6 14 6 5ZM10 5L12 5 12 14 10 14 10 5Z"/></symbol><symbol id="ico-drop-down" viewBox="0 0 7 4"><path fill-rule="evenodd" d="M6.334 0c.555 0 .699.336.325.746L4.115 3.537a.904.904 0 0 1-1.36 0L.21.747C-.165.333-.027 0 .535 0h5.8z"/></symbol><symbol id="ico-edit" viewBox="0 0 20 20"><g style="stroke-width:0.3;stroke:#000"><path d="M1 14.5L1 18.2C1 18.4 1.1 18.6 1.2 18.8 1.4 18.9 1.6 19 1.8 19L5.5 19C5.7 19 5.9 18.9 6 18.8L18.8 6C19.1 5.7 19.1 5.2 18.8 4.9L15.1 1.2C14.8 0.9 14.3 0.9 14 1.2L11.4 3.8 1.2 13.9C1.1 14.1 1 14.3 1 14.5ZM14.4 3L17 5.6 15.6 7 13 4.4 14.4 3ZM3 14.4L12.4 5 15 7.6 5.6 17 3 17 3 14.4Z"/></g></symbol><symbol id="ico-refresh" viewBox="0 0 18 18"><path d="M2.4 10L0 10 0 15.7 1.7 14.2C3.3 16.5 6 18 9 18 13.6 18 17.4 14.5 18 10L15.7 10C15.2 13.2 12.4 15.7 9 15.7 6.7 15.7 4.6 14.5 3.4 12.6L6.1 10 2.4 10Z"/><path d="M9 0C4.4 0 0.6 3.5 0 8L2.3 8C2.8 4.8 5.6 2.3 9 2.3 11.4 2.3 13.6 3.6 14.8 5.6L12.4 8 18 8 18 2.3 16.4 3.9C14.8 1.6 12 0 9 0Z"/></symbol><symbol id="ico-save" viewBox="0 0 18 18"><path d="M17 18L0 18 0 17 0 0 1 0 13 0 18 5 18 18 17 18ZM16 16L16 6 12 2 11 2 11 4.5 11 6 5 6 5 4.5 5 2 2 2 2 16 4.3 16 4 16 4 11 6 11 6 16 5.3 16 16 16ZM7 2L7 4 9 4 9 2 7 2ZM12 11L14 11 14 16 12 16 12 11ZM4 9L14 9 14 11 4 11 4 9ZM7 13L11 13 11 15 7 15 7 13Z"/></symbol><symbol id="ico-upload" viewBox="0 0 18 18"><path d="M18 1L18 16 17 16 13 16 13 14 16 14 16 2 2 2 2 14 5 14 5 16 0 16 0 15 0 0 1 0 18 0 18 1ZM10 9L10 18 8 18 8 9 6 9 9 5 12 9 10 9Z"/></symbol><symbol id="sprite"><symbol id="gift-button-blue" viewBox="0 0 24 26">

    
    <g id="Page-1" stroke="none" stroke-width="1" fill="none" fill-rule="evenodd">
        <g id="Purchase-page" transform="translate(-380.000000, -433.000000)">
            <g id="item1" transform="translate(335.000000, 252.000000)">
                <g id="blue_gift" transform="translate(40.000000, 181.000000)">
                    <g id="Group-5" transform="translate(5.000000, 0.000000)">
                        <g id="Gift-Button-Blue">
                            <g id="Gift-Button">
                                <rect id="Rectangle-9" fill="#39A3DD" x="2.08695652" y="5.93625914" width="19.826087" height="19.615465"/>
                                <path d="M12,6.83960293 C12,6.83960293 13.0434783,0.903343783 18.6521739,0 C19.6956522,0 21.3913043,2.06478579 21.3913043,3.48432602 C20.7391304,5.03291536 18.3913043,6.71055381 13.4347826,7.87199582 C12.1304348,8.38819227 12,6.83960293 12,6.83960293 Z" id="Path-3" fill="#6EC2F0"/>
                                <path d="M2.60869565,6.83960293 C2.60869565,6.83960293 3.65217391,0.903343783 9.26086957,0 C10.3043478,0 12,2.06478579 12,3.48432602 C11.3478261,5.03291536 9,6.71055381 4.04347826,7.87199582 C2.73913043,8.38819227 2.60869565,6.83960293 2.60869565,6.83960293 Z" id="Path-3-Copy" fill="#6EC2F0" transform="translate(7.304348, 3.988671) scale(-1, 1) translate(-7.304348, -3.988671) "/>
                                <ellipse id="Oval-3" fill="#59A7D2" cx="12" cy="5.93625914" rx="2.08695652" ry="2.06478579"/>
                                <rect id="Rectangle-9-Copy-2" fill="#2690CB" x="11.2173913" y="5.93625914" width="10.6956522" height="19.615465"/>
                                <rect id="Rectangle-9-Copy-3" fill="#156693" transform="translate(12.000000, 12.646813) rotate(-270.000000) translate(-12.000000, -12.646813) " x="10.9565217" y="2.83908046" width="2.08695652" height="19.615465"/>
                                <rect id="Rectangle-9-Copy" fill="#39A3DD" x="0" y="5.93625914" width="24" height="6.19435737" rx="3.09717868"/>
                                <rect id="Rectangle-9-Copy-4" fill="#6EC2F0" transform="translate(12.000000, 15.743992) rotate(-270.000000) translate(-12.000000, -15.743992) " x="2.08695652" y="13.1630094" width="19.826087" height="5.16196447"/>
                                <rect id="Rectangle-9-Copy-5" fill="#59A7D2" transform="translate(12.000000, 12.904911) rotate(-270.000000) translate(-12.000000, -12.904911) " x="11.2173913" y="10.3239289" width="1.56521739" height="5.16196447"/>
                            </g>
                        </g>
                    </g>
                </g>
            </g>
        </g>
    </g>
</symbol><symbol id="gift-button-green" viewBox="0 0 24 26">

    
    <g id="Page-1" stroke="none" stroke-width="1" fill="none" fill-rule="evenodd">
        <g id="Purchase-page" transform="translate(-463.000000, -433.000000)">
            <g id="item1" transform="translate(335.000000, 252.000000)">
                <g id="green_gift" transform="translate(127.000000, 181.000000)">
                    <g id="icoGreenGift" transform="translate(1.000000, 0.000000)">
                        <g id="Gift-Button-Green">
                            <g id="Gift-Button-Copy">
                                <rect id="Rectangle-9" fill="#30B198" x="2.08695652" y="5.93625914" width="19.826087" height="19.615465"/>
                                <path d="M12,6.83960293 C12,6.83960293 13.0434783,0.903343783 18.6521739,0 C19.6956522,0 21.3913043,2.06478579 21.3913043,3.48432602 C20.7391304,5.03291536 18.3913043,6.71055381 13.4347826,7.87199582 C12.1304348,8.38819227 12,6.83960293 12,6.83960293 Z" id="Path-3" fill="#3DDEBF"/>
                                <path d="M2.60869565,6.83960293 C2.60869565,6.83960293 3.65217391,0.903343783 9.26086957,0 C10.3043478,0 12,2.06478579 12,3.48432602 C11.3478261,5.03291536 9,6.71055381 4.04347826,7.87199582 C2.73913043,8.38819227 2.60869565,6.83960293 2.60869565,6.83960293 Z" id="Path-3-Copy" fill="#3DDEBF" transform="translate(7.304348, 3.988671) scale(-1, 1) translate(-7.304348, -3.988671) "/>
                                <ellipse id="Oval-3" fill="#30B198" cx="12" cy="5.93625914" rx="2.08695652" ry="2.06478579"/>
                                <rect id="Rectangle-9-Copy-2" fill="#00A39F" x="11.2173913" y="5.93625914" width="10.6956522" height="19.615465"/>
                                <rect id="Rectangle-9-Copy-3" fill="#177366" transform="translate(12.000000, 12.646813) rotate(-270.000000) translate(-12.000000, -12.646813) " x="10.9565217" y="2.83908046" width="2.08695652" height="19.615465"/>
                                <rect id="Rectangle-9-Copy" fill="#30B198" x="0" y="5.93625914" width="24" height="6.19435737" rx="3.09717868"/>
                                <rect id="Rectangle-9-Copy-4" fill="#3DDEBF" transform="translate(12.000000, 15.743992) rotate(-270.000000) translate(-12.000000, -15.743992) " x="2.08695652" y="13.1630094" width="19.826087" height="5.16196447"/>
                                <rect id="Rectangle-9-Copy-5" fill="#30B198" transform="translate(12.000000, 12.904911) rotate(-270.000000) translate(-12.000000, -12.904911) " x="11.2173913" y="10.3239289" width="1.56521739" height="5.16196447"/>
                            </g>
                        </g>
                    </g>
                </g>
            </g>
        </g>
    </g>
</symbol><symbol id="gift-button-red" viewBox="0 0 24 26">

    
    <g id="Page-1" stroke="none" stroke-width="1" fill="none" fill-rule="evenodd">
        <g id="Purchase-page" transform="translate(-541.000000, -433.000000)">
            <g id="item1" transform="translate(335.000000, 252.000000)">
                <g id="red_gift" transform="translate(206.000000, 181.000000)">
                    <g id="Group-6">
                        <g id="Gift-Button-Red">
                            <g id="Gift-Button-Copy-2">
                                <rect id="Rectangle-9" fill="#FF3E7D" x="2.08695652" y="5.93625914" width="19.826087" height="19.615465"/>
                                <path d="M12,6.83960293 C12,6.83960293 13.0434783,0.903343783 18.6521739,0 C19.6956522,0 21.3913043,2.06478579 21.3913043,3.48432602 C20.7391304,5.03291536 18.3913043,6.71055381 13.4347826,7.87199582 C12.1304348,8.38819227 12,6.83960293 12,6.83960293 Z" id="Path-3" fill="#FF6F9F"/>
                                <path d="M2.60869565,6.83960293 C2.60869565,6.83960293 3.65217391,0.903343783 9.26086957,0 C10.3043478,0 12,2.06478579 12,3.48432602 C11.3478261,5.03291536 9,6.71055381 4.04347826,7.87199582 C2.73913043,8.38819227 2.60869565,6.83960293 2.60869565,6.83960293 Z" id="Path-3-Copy" fill="#FF6F9F" transform="translate(7.304348, 3.988671) scale(-1, 1) translate(-7.304348, -3.988671) "/>
                                <ellipse id="Oval-3" fill="#D14170" cx="12" cy="5.93625914" rx="2.08695652" ry="2.06478579"/>
                                <rect id="Rectangle-9-Copy-2" fill="#FF3E7D" x="11.2173913" y="5.93625914" width="10.6956522" height="19.615465"/>
                                <rect id="Rectangle-9-Copy-3" fill="#C3124C" transform="translate(12.000000, 12.646813) rotate(-270.000000) translate(-12.000000, -12.646813) " x="10.9565217" y="2.83908046" width="2.08695652" height="19.615465"/>
                                <rect id="Rectangle-9-Copy" fill="#FF3E7D" x="0" y="5.93625914" width="24" height="6.19435737" rx="3.09717868"/>
                                <rect id="Rectangle-9-Copy-4" fill="#FF6F9F" transform="translate(12.000000, 15.743992) rotate(-270.000000) translate(-12.000000, -15.743992) " x="2.08695652" y="13.1630094" width="19.826087" height="5.16196447"/>
                                <rect id="Rectangle-9-Copy-5" fill="#D14170" transform="translate(12.000000, 12.904911) rotate(-270.000000) translate(-12.000000, -12.904911) " x="11.2173913" y="10.3239289" width="1.56521739" height="5.16196447"/>
                            </g>
                        </g>
                    </g>
                </g>
            </g>
        </g>
    </g>
</symbol><symbol id="ico-delete" viewBox="0 0 18 18"><path d="M4 3L4 16 14 16 14 3 4 3ZM2 3L0 3 0 0 18 0 18 3 16 3 16 18 15 18 2 18 2 17 2 3ZM6 5L8 5 8 14 6 14 6 5ZM10 5L12 5 12 14 10 14 10 5Z"/></symbol><symbol id="ico-edit" viewBox="0 0 20 20"><g style="stroke-width:0.3;stroke:#000"><path d="M1 14.5L1 18.2C1 18.4 1.1 18.6 1.2 18.8 1.4 18.9 1.6 19 1.8 19L5.5 19C5.7 19 5.9 18.9 6 18.8L18.8 6C19.1 5.7 19.1 5.2 18.8 4.9L15.1 1.2C14.8 0.9 14.3 0.9 14 1.2L11.4 3.8 1.2 13.9C1.1 14.1 1 14.3 1 14.5ZM14.4 3L17 5.6 15.6 7 13 4.4 14.4 3ZM3 14.4L12.4 5 15 7.6 5.6 17 3 17 3 14.4Z"/></g></symbol><symbol id="ico-refresh" viewBox="0 0 18 18"><path d="M2.4 10L0 10 0 15.7 1.7 14.2C3.3 16.5 6 18 9 18 13.6 18 17.4 14.5 18 10L15.7 10C15.2 13.2 12.4 15.7 9 15.7 6.7 15.7 4.6 14.5 3.4 12.6L6.1 10 2.4 10Z"/><path d="M9 0C4.4 0 0.6 3.5 0 8L2.3 8C2.8 4.8 5.6 2.3 9 2.3 11.4 2.3 13.6 3.6 14.8 5.6L12.4 8 18 8 18 2.3 16.4 3.9C14.8 1.6 12 0 9 0Z"/></symbol><symbol id="ico-save" viewBox="0 0 18 18"><path d="M17 18L0 18 0 17 0 0 1 0 13 0 18 5 18 18 17 18ZM16 16L16 6 12 2 11 2 11 4.5 11 6 5 6 5 4.5 5 2 2 2 2 16 4.3 16 4 16 4 11 6 11 6 16 5.3 16 16 16ZM7 2L7 4 9 4 9 2 7 2ZM12 11L14 11 14 16 12 16 12 11ZM4 9L14 9 14 11 4 11 4 9ZM7 13L11 13 11 15 7 15 7 13Z"/></symbol><symbol id="ico-upload" viewBox="0 0 18 18"><path d="M18 1L18 16 17 16 13 16 13 14 16 14 16 2 2 2 2 14 5 14 5 16 0 16 0 15 0 0 1 0 18 0 18 1ZM10 9L10 18 8 18 8 9 6 9 9 5 12 9 10 9Z"/></symbol></symbol></symbol></svg>